<?xml version="1.0" standalone="no"?>
<!DOCTYPE svg PUBLIC "-//W3C//DTD SVG 20010904//EN"
 "http://www.w3.org/TR/2001/REC-SVG-20010904/DTD/svg10.dtd">
<svg version="1.0" xmlns="http://www.w3.org/2000/svg"
 width="652.000000pt" height="652.000000pt" viewBox="0 0 652.000000 652.000000"
 preserveAspectRatio="xMidYMid meet">
<metadata>
Created by potrace 1.14, written by Peter Selinger 2001-2017
</metadata>
<g transform="translate(0.000000,652.000000) scale(0.100000,-0.100000)"
fill="#000000" stroke="none">
<path d="M3269 5396 c-2 -2 -40 -7 -83 -11 -43 -4 -88 -8 -100 -11 -11 -2 -38
-6 -61 -10 -131 -19 -358 -86 -508 -150 -530 -226 -1073 -725 -1310 -1204 -89
-181 -151 -362 -172 -506 -4 -21 -8 -46 -10 -54 -26 -93 -26 -526 -1 -660 3
-14 7 -43 11 -65 32 -216 140 -472 310 -735 227 -350 546 -640 895 -815 103
-52 143 -61 166 -38 12 13 15 26 10 57 -14 87 -14 101 1 118 9 10 30 20 47 23
31 6 47 2 326 -83 137 -42 288 -78 370 -88 24 -3 47 -7 50 -9 12 -7 184 -18
300 -18 272 -1 488 31 765 115 210 63 503 194 659 295 120 77 295 269 372 408
6 11 26 47 45 80 95 167 159 332 159 407 0 55 -1 57 -79 168 -117 168 -181
386 -175 597 1 54 8 121 14 148 6 28 14 61 16 74 3 13 9 32 15 43 5 10 8 18 5
18 -5 0 30 86 62 150 9 19 42 73 72 120 84 130 79 163 -68 425 -54 96 -148
245 -191 303 -12 15 -31 40 -44 57 -199 263 -451 482 -722 626 -143 75 -376
159 -510 183 -16 3 -40 8 -53 10 -97 20 -205 29 -378 32 -111 1 -203 1 -205 0z
m305 -1166 c96 -21 140 -37 264 -97 124 -59 199 -111 300 -208 171 -163 272
-363 308 -615 8 -49 7 -233 -1 -283 -28 -181 -109 -329 -268 -491 -434 -438
-820 -526 -1304 -296 -222 105 -439 282 -547 444 -41 61 -73 157 -81 241 -7
69 -7 323 0 375 2 19 7 58 10 85 25 197 115 396 232 511 72 70 270 195 368
231 17 7 55 21 85 32 222 84 454 110 634 71z"/>
<path d="M3297 3654 c-1 -1 -20 -4 -43 -7 -130 -18 -272 -121 -337 -245 -42
-81 -56 -144 -53 -240 4 -106 7 -118 47 -198 80 -159 248 -258 422 -249 95 5
110 9 194 50 164 81 261 238 261 421 0 257 -182 452 -436 467 -29 2 -54 2 -55
1z"/>
</g>
</svg>
