<?xml version="1.0" encoding="UTF-8"?>
<svg width="20px" height="20px" viewBox="0 0 20 20" version="1.1" xmlns="http://www.w3.org/2000/svg" xmlns:xlink="http://www.w3.org/1999/xlink">
    <!-- Generator: Sketch 54.1 (76490) - https://sketchapp.com -->
    <title>Earth Icon</title>
    <desc>Created with Sketch.</desc>
    <g id="Symbols" stroke="none" stroke-width="1" fill="none" fill-rule="evenodd">
        <g id="Group-Profile-Header---Member" transform="translate(-959.000000, -142.000000)">
            <g id="Group-Profile-Header-">
                <g id="Group-5">
                    <g>
                        <g id="Group-11" transform="translate(370.000000, 58.000000)">
                            <g id="Earth-Icon" transform="translate(589.000000, 84.000000)">
                                <circle id="Oval" fill="#0089C6" cx="10" cy="10" r="10"></circle>
                                <path d="M10,0 C15.5113333,0 20,4.48866667 20,10 C20,15.5113333 15.5113333,20 10,20 C4.48866667,20 0,15.5113333 0,10 C0,4.48866667 4.48866667,0 10,0 Z M18.7335556,12.7777778 L18.7333022,12.77776 C18.9998044,11.8888044 19.1551867,10.9556489 19.13088,10.0433156 C19.13088,9.70998222 19.13088,9.39922667 19.0866089,9.06589333 C18.9754978,9.06589333 18.8418178,9.04332444 18.6421644,9.06589333 C17.7758533,9.15442667 17.9095422,9.30980444 17.44252,9.93220444 C16.8418089,10.7542444 16.5084756,9.82109333 15.6421644,9.99904444 C15.5084844,10.4877556 15.5084844,11.0207333 15.4199422,11.5320222 C15.3314089,12.0424222 15.1091867,12.4651778 14.9980756,12.9538889 C14.7541644,13.9097111 14.7758533,15.5321111 14.2428756,15.8654444 C13.8878533,16.0434 12.8210089,14.5546889 12.30972,13.9322889 C11.93212,13.4652667 11.9095422,12.9765511 11.2654533,12.7986 C10.9763867,12.7769111 10.3765644,11.8654444 10.6656311,11.0434 C10.8435867,10.5546889 11.2880311,10.2656222 11.55452,9.84375556 C11.3322978,9.57726222 10.9772756,9.39931111 10.6213644,9.39931111 C10.5328311,8.33237778 13.3106089,8.19868889 12.0883867,7.15442222 C11.55452,6.99904444 11.1994978,7.62143556 10.6882089,7.70997778 C10.5770978,8.02073333 10.0215511,8.02073333 9.82189778,7.70997778 C9.62225333,7.39833333 9.97728,6.9322 10.1552311,6.6874 C10.4885644,6.1978 10.5328311,5.50944 10.8218978,5.4426 C12.2446533,5.06495556 10.4226089,4.04237778 11.1778089,3.15348889 C11.4659867,2.82016444 11.8661644,3.06408 12.1552311,3.24203111 C12.79932,3.62051111 12.8444756,3.70905333 13.7107867,3.70905333 C13.7107867,3.70905333 13.77676,3.77589333 13.6882178,3.64221333 C13.5554178,3.62051111 13.4442978,3.5094 13.3106178,3.48683111 C13.2889156,3.08665333 13.2446444,2.50940889 13.4442978,2.15349778 C13.5554089,1.93128444 13.7333556,1.79847111 13.9330089,1.73163111 C12.8887867,1.24292 11.7334533,0.93216 10.5112311,0.86532 C10.5112311,0.909591111 10.5112311,0.93216 10.4886622,0.976431111 C10.4001289,1.22123111 10.1553289,1.39830667 9.93310667,1.53198667 C9.42181778,1.84275111 8.42181778,1.84275111 7.77772889,1.73164 C7.59977333,1.68737333 7.08848444,1.57625778 6.86626222,1.39830667 C5.95475111,1.73164 5.11012889,2.19866222 4.35492889,2.79848444 C4.55546222,2.73164444 4.75510667,2.70994222 4.97732889,2.79848444 C5.64399556,3.06497333 5.51031556,4.30977333 5.53288444,4.90959556 C5.99990667,4.90959556 6.71084,4.73252889 6.93306222,5.26550667 C7.15528444,5.77679556 6.59973333,5.84275111 6.44435111,6.30977333 C7.26728444,6.42088444 7.66657333,6.97644 7.02248444,7.57626222 C6.48950667,8.06497333 6.31155111,7.88790667 6.08932889,8.64310667 C5.88967556,9.22124 5.77856444,9.57626222 5.86710667,10.1986622 C5.97821778,10.8653289 6.08932889,11.2429289 5.35581778,11.1318178 C4.88968444,11.0649733 4.55635111,10.4200044 4.08932889,10.5536844 C3.82284,10.6205289 3.55634222,11.3757289 3.53377333,11.6205289 C3.44532889,12.9312844 6.40009333,11.9095956 6.42266222,12.6205289 C6.44436444,13.1319067 6.53377333,14.1102178 6.57804444,14.8654178 C6.62231111,15.7100844 6.88880444,16.4210178 6.84453333,17.26564 C6.22302222,17.3767511 5.62231111,16.7995067 5.08933333,16.51044 C4.26737778,16.0659956 3.00088889,15.5555956 2.55644444,14.6441289 C2.28907556,14.0885733 2.48959556,13.3550622 2.31164444,12.75524 C2.112,12.0668844 1.77866667,11.7109733 1.20053333,11.3333733 C1.08941756,11.2665333 1.00000867,11.1996933 0.911466444,11.1111511 C1.3108,14.3775956 3.44457778,17.1336844 6.3768,18.3784844 C6.9992,18.2673733 7.79955111,17.9783111 7.95493333,18.0451511 C8.37782222,18.2673689 10.5548,18.5112933 11.1329333,18.4227511 C11.6442222,18.3333289 12.1103556,18.1111111 12.6884889,18.06684 C13.0660889,18.0451378 13.5556889,17.8671867 13.8664444,17.8671867 C14.0886667,17.9114578 14.2440489,18 14.3108889,18.06684 C15.2213778,17.5781289 16.0434222,16.9557289 16.7326667,16.2005289 C16.6215644,16.1779511 16.5104533,16.0894089 16.4219111,15.9557289 C16.0885778,15.4670178 16.6441333,14.06684 17.2665333,14.1779511 C17.3108,13.9331511 17.5330267,13 17.7109778,12.8446178 C17.9115111,12.6892356 18.4228,12.7552089 18.7335556,12.7777778 Z M7.71624813,3.66179204 C8.04218826,3.45605701 8.42852987,3.51713562 8.795009,3.66179204 C8.95716503,4.52571456 8.40785335,4.87529952 7.65503261,4.62858208 C7.65503261,4.31997954 7.61448953,3.90850948 7.71624406,3.66179204 Z" id="Combined-Shape" fill="#98D63C"></path>
                            </g>
                        </g>
                    </g>
                </g>
            </g>
        </g>
    </g>
</svg>