<?xml version="1.0" encoding="UTF-8"?>
<svg width="400px" height="400px" viewBox="0 0 400 400" version="1.1" xmlns="http://www.w3.org/2000/svg" xmlns:xlink="http://www.w3.org/1999/xlink">
    <!-- Generator: Sketch 51.3 (57544) - http://www.bohemiancoding.com/sketch -->
    <title>eyes/eyes7</title>
    <desc>Created with Sketch.</desc>
    <defs></defs>
    <g id="eyes/eyes7" stroke="none" stroke-width="1" fill="none" fill-rule="evenodd">
        <g id="Group-2" transform="translate(146.500000, 100.000000)">
            <path d="M0.2173,18.0336 L106.0063,18.0336" id="Stroke-151" stroke="#4C4C4E" stroke-width="5"></path>
            <path d="M45.8052,18.7523 C45.8052,28.6033 37.5712,36.4893 27.4182,36.4893 C17.2722,36.4893 9.0002,28.6033 9.0002,18.7523 C9.0002,8.8933 17.2722,0.8363 27.4182,0.8363 C37.5712,0.8363 45.8052,8.8933 45.8052,18.7523" id="Fill-153" fill="#FFFFFF"></path>
            <path d="M36.4712,19.0423 C36.4712,23.6213 32.3692,27.2353 27.4162,27.2353 C22.3792,27.2353 18.3362,23.6213 18.3362,19.0423 C18.3362,14.5013 22.3792,10.8523 27.4162,10.8523 C32.3692,10.8523 36.4712,14.5013 36.4712,19.0423" id="Fill-157" fill="#444344"></path>
            <path d="M45.8052,18.7523 C45.8052,28.6033 37.5712,36.4893 27.4182,36.4893 C17.2722,36.4893 9.0002,28.6033 9.0002,18.7523 C9.0002,8.8933 17.2722,0.8363 27.4182,0.8363 C37.5712,0.8363 45.8052,8.8933 45.8052,18.7523 Z" id="Stroke-155" stroke="#4C4C4E" stroke-width="4"></path>
            <path d="M97.1196,18.8724 C97.1196,28.6804 88.9086,36.5754 78.7136,36.5754 C68.5586,36.5754 60.3816,28.6804 60.3816,18.8724 C60.3816,9.0184 68.5586,0.9224 78.7136,0.9224 C88.9086,0.9224 97.1196,9.0184 97.1196,18.8724" id="Fill-159" fill="#FFFFFF"></path>
            <path d="M97.1196,18.8724 C97.1196,28.6804 88.9086,36.5754 78.7136,36.5754 C68.5586,36.5754 60.3816,28.6804 60.3816,18.8724 C60.3816,9.0184 68.5586,0.9224 78.7136,0.9224 C88.9086,0.9224 97.1196,9.0184 97.1196,18.8724 Z" id="Stroke-161" stroke="#4C4C4E" stroke-width="4"></path>
            <path d="M87.8247,19.3675 C87.8247,23.9015 83.7757,27.5485 78.7607,27.5485 C73.7327,27.5485 69.6767,23.9015 69.6767,19.3675 C69.6767,14.8295 73.7327,11.0525 78.7607,11.0525 C83.7757,11.0525 87.8247,14.8295 87.8247,19.3675" id="Fill-163" fill="#444344"></path>
        </g>
    </g>
</svg>