<?xml version="1.0" encoding="UTF-8"?>
<svg width="400px" height="400px" viewBox="0 0 400 400" version="1.1" xmlns="http://www.w3.org/2000/svg" xmlns:xlink="http://www.w3.org/1999/xlink">
    <!-- Generator: Sketch 51.3 (57544) - http://www.bohemiancoding.com/sketch -->
    <title>eyes/eyes2</title>
    <desc>Created with Sketch.</desc>
    <defs></defs>
    <g id="eyes/eyes2" stroke="none" stroke-width="1" fill="none" fill-rule="evenodd">
        <g id="Group" transform="translate(157.000000, 100.000000)">
            <path d="M7.80437971,30.8270484 L27.8023797,28.4890484 C31.2013797,25.0610484 33.0793797,20.1530484 32.4643797,14.9110484 C31.4023797,5.81704844 23.2943797,-0.766951555 14.3713797,0.276048445 C5.45437971,1.31904844 -0.947620293,9.59904844 0.115379707,18.6940484 C0.728379707,23.9360484 3.69637971,28.2780484 7.80437971,30.8270484" id="Fill-710" fill="#FFFFFF"></path>
            <path d="M25.8737797,16.7078484 C25.8737797,21.2878484 21.7727797,24.9008484 16.8197797,24.9008484 C11.7807797,24.9008484 7.73877971,21.2878484 7.73877971,16.7078484 C7.73877971,12.1668484 11.7807797,8.51884844 16.8197797,8.51884844 C21.7727797,8.51884844 25.8737797,12.1668484 25.8737797,16.7078484" id="Fill-711" fill="#444344"></path>
            <path d="M57.9425797,28.6550484 C54.5745797,25.2320484 52.7435797,20.3020484 53.4065797,15.0120484 C54.5595797,5.83504844 62.7335797,-0.875951555 71.6445797,0.0930484446 C80.5545797,1.06104844 86.8785797,9.34804844 85.7255797,18.5260484 C85.0635797,23.8150484 82.0535797,28.2200484 77.9215797,30.8270484 L57.9425797,28.6550484 Z" id="Fill-712" fill="#FFFFFF"></path>
            <path d="M59.8512797,16.7078484 C59.8512797,21.2878484 63.9522797,24.9008484 68.9052797,24.9008484 C73.9432797,24.9008484 77.9862797,21.2878484 77.9862797,16.7078484 C77.9862797,12.1668484 73.9432797,8.51884844 68.9052797,8.51884844 C63.9522797,8.51884844 59.8512797,12.1668484 59.8512797,16.7078484" id="Fill-713" fill="#444344"></path>
        </g>
    </g>
</svg>