<?xml version="1.0" encoding="UTF-8"?>
<svg width="400px" height="400px" viewBox="0 0 400 400" version="1.1" xmlns="http://www.w3.org/2000/svg" xmlns:xlink="http://www.w3.org/1999/xlink">
    <!-- Generator: Sketch 51.3 (57544) - http://www.bohemiancoding.com/sketch -->
    <title>eyes/eyes9</title>
    <desc>Created with Sketch.</desc>
    <defs></defs>
    <g id="eyes/eyes9" stroke="none" stroke-width="1" fill="none" fill-rule="evenodd">
        <g id="Group-2" transform="translate(151.000000, 100.000000)">
            <path d="M38.5416,17.6515619 C38.5416,26.3695619 31.2536,33.3485619 22.2706,33.3485619 C13.2926,33.3485619 5.9716,26.3695619 5.9716,17.6515619 C5.9716,8.92456193 13.2926,1.79656193 22.2706,1.79656193 C31.2536,1.79656193 38.5416,8.92456193 38.5416,17.6515619" id="Fill-684" fill="#FFFFFF"></path>
            <path d="M32.1324,17.9308619 C32.1324,22.5098619 28.0304,26.1238619 23.0784,26.1238619 C18.0404,26.1238619 13.9954,22.5098619 13.9954,17.9308619 C13.9954,13.3898619 18.0404,9.74086193 23.0784,9.74086193 C28.0304,9.74086193 32.1324,13.3898619 32.1324,17.9308619" id="Fill-685" fill="#444344"></path>
            <path d="M34.482,7.04516193 C34.279,6.79116193 34.013,6.37916193 33.61,5.91616193 C33.17,5.49616193 32.706,4.88216193 32.013,4.36716193 C31.675,4.10116193 31.33,3.79116193 30.933,3.51016193 C30.521,3.25216193 30.089,2.98116193 29.636,2.69616193 C29.171,2.43416193 28.66,2.21316193 28.14,1.95616193 C27.619,1.69516193 27.034,1.55916193 26.454,1.34816193 C25.268,0.988161933 23.901,0.737161933 22.662,0.683161933 C21.933,0.604161933 21.283,0.688161933 20.576,0.687161933 C19.88,0.749161933 19.175,0.834161933 18.48,0.978161933 C17.79,1.15816193 17.077,1.28716193 16.401,1.55916193 C16.063,1.68416193 15.716,1.79516193 15.378,1.93116193 L14.391,2.39616193 C13.723,2.69116193 13.132,3.13316193 12.506,3.49616193 C11.933,3.94716193 11.318,4.33416193 10.8,4.84016193 L10.011,5.56816193 C9.765,5.82616193 9.538,6.10216193 9.3,6.36516193 C8.818,6.87716193 8.439,7.47216193 8.035,8.02416193 C7.657,8.59416193 7.322,9.18616193 7.017,9.76816193 C6.765,10.3791619 6.459,10.9491619 6.278,11.5531619 C6.046,12.2031619 5.867,12.8421619 5.734,13.4691619 L0,10.8161619 L5.497,18.3901619 C5.591,19.0701619 5.673,19.6701619 5.789,20.1561619 C6.144,21.3281619 6.365,21.9941619 6.365,21.9941619 C6.365,21.9941619 6.308,21.2941619 6.178,20.0741619 C6.144,19.4641619 6.207,18.7331619 6.197,17.9171619 C6.282,17.1271619 6.383,16.1021619 6.623,15.1711619 C6.839,14.2081619 7.203,13.1651619 7.66,12.1291619 C7.867,11.5981619 8.196,11.1071619 8.462,10.5781619 C8.793,10.0841619 9.101,9.56116193 9.47,9.07016193 C10.216,8.09616193 11.074,7.16116193 12.06,6.34416193 C12.523,5.90116193 13.082,5.57416193 13.591,5.17816193 C14.157,4.86916193 14.68,4.47916193 15.279,4.23216193 L16.146,3.80716193 C16.447,3.68316193 16.752,3.57816193 17.048,3.46216193 C17.643,3.20716193 18.275,3.08816193 18.884,2.91216193 C19.507,2.78016193 20.13,2.68416193 20.745,2.58616193 C21.355,2.55916193 22.01,2.44616193 22.564,2.48316193 C23.893,2.49816193 24.993,2.60816193 26.087,2.83016193 C27.192,3.06116193 28.206,3.40116193 29.138,3.75616193 C29.591,3.96716193 30.025,4.16916193 30.437,4.36116193 C30.845,4.56516193 31.211,4.80516193 31.569,5.00516193 C31.933,5.19916193 32.246,5.42616193 32.531,5.63916193 C32.824,5.84816193 33.093,6.04116193 33.337,6.21416193 C34.252,6.98116193 34.78,7.44616193 34.78,7.44616193 C34.78,7.44616193 34.675,7.30716193 34.482,7.04516193" id="Fill-686" fill="#000000"></path>
            <path d="M59.4586,17.9006619 C59.4586,26.6186619 66.7476,33.5976619 75.7296,33.5976619 C84.7086,33.5976619 92.0296,26.6186619 92.0296,17.9006619 C92.0296,9.17366193 84.7086,2.04566193 75.7296,2.04566193 C66.7476,2.04566193 59.4586,9.17366193 59.4586,17.9006619" id="Fill-687" fill="#FFFFFF"></path>
            <path d="M65.8668,18.1798619 C65.8668,22.7588619 69.9688,26.3728619 74.9238,26.3728619 C79.9608,26.3728619 84.0038,22.7588619 84.0038,18.1798619 C84.0038,13.6388619 79.9608,9.98986193 74.9238,9.98986193 C69.9688,9.98986193 65.8668,13.6388619 65.8668,18.1798619" id="Fill-688" fill="#444344"></path>
            <path d="M63.6871,7.30096193 C63.8871,7.04496193 64.1501,6.63396193 64.5541,6.17196193 C64.9941,5.75096193 65.4551,5.13596193 66.1431,4.62096193 C66.4791,4.35596193 66.8241,4.04696193 67.2161,3.76596193 C67.6281,3.50596193 68.0581,3.23496193 68.5091,2.95096193 C68.9711,2.69096193 69.4801,2.46796193 69.9961,2.20996193 C70.5161,1.94896193 71.0991,1.81496193 71.6751,1.60196193 C72.8531,1.24296193 74.2161,0.992961933 75.4501,0.937961933 C76.1731,0.859961933 76.8181,0.943961933 77.5251,0.941961933 C78.2151,1.00396193 78.9161,1.08796193 79.6111,1.23396193 C80.2971,1.41296193 81.0071,1.54296193 81.6771,1.81496193 C82.0161,1.93796193 82.3601,2.05296193 82.6971,2.18596193 L83.6811,2.65096193 C84.3441,2.94696193 84.9321,3.38896193 85.5561,3.75096193 C86.1251,4.20296193 86.7381,4.58996193 87.2511,5.09596193 L88.0391,5.82396193 C88.2831,6.07996193 88.5091,6.35596193 88.7441,6.61896193 C89.2261,7.13396193 89.6031,7.72696193 90.0051,8.27796193 C90.3801,8.84996193 90.7141,9.43996193 91.0171,10.0239619 C91.2681,10.6349619 91.5741,11.2039619 91.7531,11.8069619 C91.9821,12.4589619 92.1611,13.0979619 92.2961,13.7249619 L98.0001,11.0719619 L92.5311,18.6449619 C92.4371,19.3239619 92.3551,19.9259619 92.2401,20.4119619 C91.8871,21.5839619 91.6671,22.2499619 91.6671,22.2499619 C91.6671,22.2499619 91.7231,21.5479619 91.8531,20.3299619 C91.8861,19.7189619 91.8261,18.9889619 91.8341,18.1729619 C91.7481,17.3829619 91.6501,16.3569619 91.4101,15.4259619 C91.1961,14.4639619 90.8321,13.4199619 90.3771,12.3839619 C90.1711,11.8539619 89.8451,11.3619619 89.5801,10.8339619 C89.2501,10.3399619 88.9431,9.81896193 88.5771,9.32596193 C87.8371,8.35196193 86.9801,7.41596193 85.9991,6.59996193 C85.5391,6.15696193 84.9821,5.82796193 84.4761,5.43296193 C83.9141,5.12496193 83.3931,4.73496193 82.7961,4.48696193 L81.9321,4.06096193 C81.6321,3.93696193 81.3321,3.83196193 81.0341,3.71796193 C80.4441,3.46196193 79.8141,3.34196193 79.2071,3.16696193 C78.5891,3.03696193 77.9681,2.94096193 77.3571,2.84196193 C76.7481,2.81496193 76.0971,2.70096193 75.5471,2.73896193 C74.2241,2.75196193 73.1301,2.86396193 72.0411,3.08596193 C70.9411,3.31696193 69.9331,3.65596193 69.0051,4.01196193 C68.5541,4.22296193 68.1231,4.42496193 67.7101,4.61496193 C67.3041,4.82096193 66.9411,5.05896193 66.5831,5.26096193 C66.2231,5.45496193 65.9131,5.67996193 65.6261,5.89396193 C65.3371,6.10396193 65.0661,6.29596193 64.8261,6.46996193 C63.9161,7.23696193 63.3901,7.69996193 63.3901,7.69996193 C63.3901,7.69996193 63.4941,7.56096193 63.6871,7.30096193" id="Fill-689" fill="#000000"></path>
        </g>
    </g>
</svg>