<?xml version="1.0" encoding="UTF-8"?>
<svg width="400px" height="400px" viewBox="0 0 400 400" version="1.1" xmlns="http://www.w3.org/2000/svg" xmlns:xlink="http://www.w3.org/1999/xlink">
    <!-- Generator: Sketch 51.3 (57544) - http://www.bohemiancoding.com/sketch -->
    <title>eyes/eyes11</title>
    <desc>Created with Sketch.</desc>
    <defs></defs>
    <g id="eyes/eyes11" stroke="none" stroke-width="1" fill="none" fill-rule="evenodd">
        <g id="Group-2" transform="translate(148.000000, 100.000000)">
            <path d="M6.55740461,0.730255195 L13.0364046,6.71025519" id="Stroke-804" stroke="#424242" stroke-width="3" stroke-linecap="round"></path>
            <path d="M0.0750046087,9.74785519 L8.58100461,12.7148552" id="Stroke-805" stroke="#424242" stroke-width="3" stroke-linecap="round"></path>
            <path d="M96.9110046,0.802555195 L90.4380046,6.78255519" id="Stroke-806" stroke="#424242" stroke-width="3" stroke-linecap="round"></path>
            <path d="M103.409005,9.82205519 L94.8760046,12.7910552" id="Stroke-807" stroke="#424242" stroke-width="3" stroke-linecap="round"></path>
            <path d="M41.6053046,17.8953552 C41.6053046,26.6133552 34.3163046,33.5923552 25.3343046,33.5923552 C16.3563046,33.5923552 9.03530461,26.6133552 9.03530461,17.8953552 C9.03530461,9.16835519 16.3563046,2.04035519 25.3343046,2.04035519 C34.3163046,2.04035519 41.6053046,9.16835519 41.6053046,17.8953552" id="Fill-808" fill="#FFFFFF"></path>
            <path d="M35.1961046,18.1746552 C35.1961046,22.7536552 31.0941046,26.3676552 26.1411046,26.3676552 C21.1041046,26.3676552 17.0611046,22.7536552 17.0611046,18.1746552 C17.0611046,13.6336552 21.1041046,9.98465519 26.1411046,9.98465519 C31.0941046,9.98465519 35.1961046,13.6336552 35.1961046,18.1746552" id="Fill-809" fill="#444344"></path>
            <path d="M38.0750046,8.04765519 C35.4470046,4.38865519 30.6580046,1.66465519 25.4110046,1.66465519 C16.0710046,1.66465519 8.86400461,9.02565519 8.86400461,18.1036552 C8.86400461,19.0956552 9.22400461,20.2746552 9.39800461,21.2146552 C9.01400461,19.1456552 9.98800461,17.0706552 11.0250046,15.3416552 C12.0690046,13.6006552 13.2970046,11.9356552 14.7430046,10.5076552 C16.6750046,8.60465519 18.9590046,7.09165519 21.4870046,6.10365519 C22.1940046,5.82765519 22.9270046,5.59965519 23.6630046,5.41765519 C25.0430046,5.07365519 26.4460046,4.87665519 27.8700046,4.89465519 C30.0140046,4.92065519 32.1120046,5.42165519 34.1770046,5.96865519 C35.5860046,6.34065519 37.1810046,6.80265519 38.0750046,8.04765519" id="Fill-810" fill="#5E5E5E"></path>
            <path d="M62.4090046,18.0818552 C62.4090046,26.8008552 69.6980046,33.7788552 78.6790046,33.7788552 C87.6580046,33.7788552 94.9790046,26.8008552 94.9790046,18.0818552 C94.9790046,9.35485519 87.6580046,2.22685519 78.6790046,2.22685519 C69.6980046,2.22685519 62.4090046,9.35485519 62.4090046,18.0818552" id="Fill-811" fill="#FFFFFF"></path>
            <path d="M68.8182046,18.3611552 C68.8182046,22.9411552 72.9192046,26.5541552 77.8722046,26.5541552 C82.9102046,26.5541552 86.9532046,22.9411552 86.9532046,18.3611552 C86.9532046,13.8201552 82.9102046,10.1721552 77.8722046,10.1721552 C72.9192046,10.1721552 68.8182046,13.8201552 68.8182046,18.3611552" id="Fill-812" fill="#444344"></path>
            <path d="M65.9383046,8.23415519 C68.5673046,4.57615519 73.3563046,1.85115519 78.6033046,1.85115519 C87.9423046,1.85115519 95.1503046,9.21315519 95.1503046,18.2911552 C95.1503046,19.2821552 94.7903046,20.4611552 94.6163046,21.4011552 C94.9993046,19.3321552 94.0263046,17.2571552 92.9893046,15.5291552 C91.9443046,13.7871552 90.7173046,12.1221552 89.2703046,10.6951552 C87.3403046,8.79115519 85.0553046,7.27815519 82.5263046,6.29115519 C81.8203046,6.01515519 81.0883046,5.78715519 80.3513046,5.60415519 C78.9713046,5.26115519 77.5683046,5.06415519 76.1433046,5.08215519 C73.9993046,5.10715519 71.9013046,5.60915519 69.8373046,6.15515519 C68.4283046,6.52715519 66.8333046,6.99015519 65.9383046,8.23415519" id="Fill-813" fill="#5E5E5E"></path>
        </g>
    </g>
</svg>