<?xml version="1.0" encoding="UTF-8"?>
<svg width="400px" height="400px" viewBox="0 0 400 400" version="1.1" xmlns="http://www.w3.org/2000/svg" xmlns:xlink="http://www.w3.org/1999/xlink">
    <!-- Generator: Sketch 51.3 (57544) - http://www.bohemiancoding.com/sketch -->
    <title>eyes/eyes5</title>
    <desc>Created with Sketch.</desc>
    <defs></defs>
    <g id="eyes/eyes5" stroke="none" stroke-width="1" fill="none" fill-rule="evenodd">
        <g id="Group" transform="translate(147.500000, 100.000000)">
            <path d="M12.5128818,6.7026 C18.9108818,7.0986 24.7298818,7.2796 30.4018818,8.6066 C35.5008818,9.7996 40.2708818,11.6176 44.0828818,15.1926 C44.8008818,15.8666 45.1238818,16.5756 45.0698818,17.5456 C44.8228818,22.0136 43.7838818,26.2836 41.5138818,30.2356 C38.7238818,35.0916 33.3428818,37.3246 27.3528818,36.2596 C20.9168818,35.1166 16.0668818,31.7746 12.3798818,26.8326 C8.63988183,21.8166 6.44888183,16.2196 5.20088183,10.2236 C4.72188183,7.9236 4.52488183,7.7996 7.51288183,7.2586 C9.34888183,6.9276 11.2338818,6.8386 12.5128818,6.7026" id="Fill-616" fill="#FFFFFF"></path>
            <path d="M92.6125818,6.6968 C94.0345818,6.9228 96.4815818,7.3008 98.9245818,7.7018 C99.7345818,7.8348 99.9605818,8.3228 99.8165818,9.0618 C98.7775818,14.4228 97.0775818,19.5688 94.1285818,24.2968 C91.4525818,28.5818 88.0595818,32.2168 83.2275818,34.4558 C79.7395818,36.0698 76.0485818,36.8598 72.1615818,36.3308 C68.0365818,35.7678 65.1725818,33.4418 63.2085818,30.1318 C60.8935818,26.2338 59.9345818,21.9748 59.6865818,17.5458 C59.6285818,16.5188 60.0185818,15.8008 60.7625818,15.1098 C64.0915818,12.0218 68.1785818,10.2658 72.5915818,9.0478 C78.7775818,7.3398 85.1675818,7.1438 92.6125818,6.6968" id="Fill-618" fill="#FFFFFF"></path>
            <path d="M99.8166818,9.062 C98.7776818,14.422 97.0776818,19.569 94.1286818,24.296 C91.4526818,28.582 88.0596818,32.216 83.2276818,34.456 C79.7396818,36.07 76.0476818,36.86 72.1616818,36.331 C68.0366818,35.768 65.1716818,33.442 63.2086818,30.131 C60.8936818,26.234 59.9346818,21.975 59.6866818,17.545 C59.6286818,16.519 60.0186818,15.8 60.7626818,15.11 C64.0916818,12.022 68.1786818,10.266 72.5906818,9.047 C78.7776818,7.339 85.1676818,7.144 92.6126818,6.697 C94.0346818,6.922 96.4816818,7.3 98.9236818,7.702 C99.7346818,7.834 99.9606818,8.323 99.8166818,9.062 M101.737682,3.709 C102.164682,3.026 102.444682,2.575 102.637682,2.264 C102.337682,2.747 102.036682,3.228 101.737682,3.709 M45.0696818,17.545 C44.8226818,22.013 43.7846818,26.284 41.5136818,30.236 C38.7236818,35.091 33.3426818,37.325 27.3526818,36.259 C20.9176818,35.117 16.0666818,31.775 12.3796818,26.833 C8.63968183,21.817 6.44868183,16.219 5.20068183,10.224 C4.72168183,7.923 4.52468183,7.799 7.51268183,7.258 C9.34868183,6.927 11.2336818,6.838 12.5126818,6.703 C18.9116818,7.099 24.7296818,7.28 30.4016818,8.607 C35.5016818,9.799 40.2706818,11.618 44.0836818,15.193 C44.8006818,15.867 45.1246818,16.576 45.0696818,17.545 M3.20868183,3.689 C3.10468183,3.643 2.95168183,3.621 2.90768183,3.544 C2.66368183,3.109 2.44568183,2.662 2.21668183,2.218 C2.25368183,2.211 2.29468183,2.202 2.33568183,2.192 C2.52168183,2.558 2.70668183,2.926 2.90768183,3.285 C2.95168183,3.362 3.10468183,3.383 3.20868183,3.43 C3.30768183,3.373 3.40968183,3.316 3.50868183,3.258 C3.55168183,3.321 3.59268183,3.384 3.63368183,3.447 C3.49168183,3.528 3.34868183,3.609 3.20868183,3.689 M2.31568183,4.644 C2.53568183,4.944 2.79968183,5.304 3.17568183,5.82 C2.84468183,5.368 2.58368183,5.01 2.31568183,4.644 M103.868682,0.518 C102.194682,0.412 100.522682,0.148 98.8536818,0.15 C92.0456818,0.159 85.4306818,1.333 78.9586818,3.248 C70.6766818,5.697 62.9606818,9.28 55.5616818,13.506 C53.4626818,14.706 51.3096818,14.71 49.2126818,13.513 C41.0346818,8.852 32.4916818,4.953 23.2456818,2.517 C17.7046818,1.058 12.0746818,0.145 6.29268183,0 C4.50168183,0.148 2.71068183,0.307 0.919681825,0.44 C0.110681825,0.499 -0.118318175,0.838 0.0536818254,1.583 C0.529681825,3.645 1.10168183,5.701 1.36168183,7.789 C2.20668183,14.569 4.40568183,20.91 8.19668183,26.728 C12.6286818,33.531 18.6926818,38.26 27.3646818,39.444 C33.3566818,40.262 38.6066818,38.93 42.5756818,34.393 C46.2456818,30.2 47.6296818,25.158 48.3266818,19.918 C48.4736818,18.803 48.8816818,18.136 49.9766818,17.784 C51.9606818,17.148 53.8566818,17.332 55.6286818,18.353 C55.9606818,18.543 56.2396818,18.979 56.3236818,19.345 C56.5526818,20.355 56.6416818,21.392 56.8316818,22.412 C57.5476818,26.271 58.8266818,29.936 61.2106818,33.198 C63.9896818,37.005 67.8176818,39.311 72.7356818,39.596 C80.0946818,40.022 86.3806818,37.564 91.5796818,32.702 C97.2666818,27.382 100.376682,20.749 102.284682,13.568 C102.937682,11.117 103.253682,8.587 103.743682,6.097 C104.042682,4.588 104.378682,3.086 104.710682,1.583 C104.853682,0.921 104.643682,0.566 103.868682,0.518" id="Fill-620" fill="#4C4C4E"></path>
            <path d="M35.2668818,21.438 C35.2668818,26.017 31.1668818,29.631 26.2128818,29.631 C21.1748818,29.631 17.1318818,26.017 17.1318818,21.438 C17.1318818,16.897 21.1748818,13.248 26.2128818,13.248 C31.1668818,13.248 35.2668818,16.897 35.2668818,21.438" id="Fill-622" fill="#444344"></path>
            <path d="M86.6203818,21.7632 C86.6203818,26.2972 82.5713818,29.9442 77.5563818,29.9442 C72.5283818,29.9442 68.4723818,26.2972 68.4723818,21.7632 C68.4723818,17.2252 72.5283818,13.4482 77.5563818,13.4482 C82.5713818,13.4482 86.6203818,17.2252 86.6203818,21.7632" id="Fill-624" fill="#444344"></path>
        </g>
    </g>
</svg>