<?xml version="1.0" encoding="UTF-8"?>
<svg width="400px" height="400px" viewBox="0 0 400 400" version="1.1" xmlns="http://www.w3.org/2000/svg" xmlns:xlink="http://www.w3.org/1999/xlink">
    <!-- Generator: Sketch 51.3 (57544) - http://www.bohemiancoding.com/sketch -->
    <title>eyes/eyes1</title>
    <desc>Created with Sketch.</desc>
    <defs></defs>
    <g id="eyes/eyes1" stroke="none" stroke-width="1" fill="none" fill-rule="evenodd">
        <g id="Group-3" transform="translate(156.500000, 100.000000)">
            <path d="M32.8003,16.4424594 C32.8003,25.1604594 25.5113,32.1394594 16.5293,32.1394594 C7.5513,32.1394594 0.2303,25.1604594 0.2303,16.4424594 C0.2303,7.71545936 7.5513,0.587459356 16.5293,0.587459356 C25.5113,0.587459356 32.8003,7.71545936 32.8003,16.4424594" id="Fill-131" fill="#FFFFFF"></path>
            <path d="M26.3911,16.7217594 C26.3911,21.3007594 22.2901,24.9147594 17.3371,24.9147594 C12.2991,24.9147594 8.2561,21.3007594 8.2561,16.7217594 C8.2561,12.1807594 12.2991,8.53175936 17.3371,8.53175936 C22.2901,8.53175936 26.3911,12.1807594 26.3911,16.7217594" id="Fill-133" fill="#444344"></path>
            <path d="M86.231,16.7627594 C86.231,25.4407594 78.961,32.4267594 69.94,32.4267594 C60.958,32.4267594 53.719,25.4407594 53.719,16.7627594 C53.719,8.04175936 60.958,0.873759356 69.94,0.873759356 C78.961,0.873759356 86.231,8.04175936 86.231,16.7627594" id="Fill-135" fill="#FFFFFF"></path>
            <path d="M77.7446,17.0469594 C77.7446,21.5809594 73.6956,25.2279594 68.6806,25.2279594 C63.6526,25.2279594 59.5966,21.5809594 59.5966,17.0469594 C59.5966,12.5089594 63.6526,8.73195936 68.6806,8.73195936 C73.6956,8.73195936 77.7446,12.5089594 77.7446,17.0469594" id="Fill-137" fill="#444344"></path>
        </g>
    </g>
</svg>