<?xml version="1.0" encoding="UTF-8"?>
<svg width="400px" height="400px" viewBox="0 0 400 400" version="1.1" xmlns="http://www.w3.org/2000/svg" xmlns:xlink="http://www.w3.org/1999/xlink">
    <!-- Generator: Sketch 51.3 (57544) - http://www.bohemiancoding.com/sketch -->
    <title>eyes/eyes8</title>
    <desc>Created with Sketch.</desc>
    <defs></defs>
    <g id="eyes/eyes8" stroke="none" stroke-width="1" fill="none" fill-rule="evenodd">
        <g id="Group" transform="translate(148.000000, 100.000000)">
            <path d="M6.9189,13.2261965 L13.3979,19.2061965" id="Stroke-59" stroke="#424242" stroke-width="3" stroke-linecap="round"></path>
            <path d="M0.4365,14.7336965 L8.9425,17.6986965" id="Stroke-61" stroke="#424242" stroke-width="3" stroke-linecap="round"></path>
            <path d="M97.2715,13.2261965 L90.7985,19.2061965" id="Stroke-63" stroke="#424242" stroke-width="3" stroke-linecap="round"></path>
            <path d="M103.7695,14.7316965 L95.2365,17.7006965" id="Stroke-65" stroke="#424242" stroke-width="3" stroke-linecap="round"></path>
            <path d="M41.8057,16.2951965 C41.8057,25.0121965 34.5167,31.9921965 25.5347,31.9921965 C16.5567,31.9921965 9.2357,25.0121965 9.2357,16.2951965 C9.2357,7.56819648 16.5567,0.440196479 25.5347,0.440196479 C34.5167,0.440196479 41.8057,7.56819648 41.8057,16.2951965" id="Fill-67" fill="#FFFFFF"></path>
            <path d="M35.3965,16.2151965 C35.3965,20.7931965 31.2955,24.4081965 26.3425,24.4081965 C21.3045,24.4081965 17.2615,20.7931965 17.2615,16.2151965 C17.2615,11.6741965 21.3045,8.02419648 26.3425,8.02419648 C31.2955,8.02419648 35.3965,11.6741965 35.3965,16.2151965" id="Fill-69" fill="#444344"></path>
            <path d="M95.2363,16.3286965 C95.2363,25.0066965 87.9663,31.9926965 78.9453,31.9926965 C69.9633,31.9926965 62.7243,25.0066965 62.7243,16.3286965 C62.7243,7.60769648 69.9633,0.439696479 78.9453,0.439696479 C87.9663,0.439696479 95.2363,7.60769648 95.2363,16.3286965" id="Fill-71" fill="#FFFFFF"></path>
            <path d="M86.75,16.2821965 C86.75,20.8171965 82.701,24.4641965 77.686,24.4641965 C72.658,24.4641965 68.602,20.8171965 68.602,16.2821965 C68.602,11.7451965 72.658,7.96819648 77.686,7.96819648 C82.701,7.96819648 86.75,11.7451965 86.75,16.2821965" id="Fill-73" fill="#444344"></path>
        </g>
    </g>
</svg>