<?xml version="1.0" encoding="UTF-8"?>
<svg width="400px" height="400px" viewBox="0 0 400 400" version="1.1" xmlns="http://www.w3.org/2000/svg" xmlns:xlink="http://www.w3.org/1999/xlink">
    <!-- Generator: Sketch 51.3 (57544) - http://www.bohemiancoding.com/sketch -->
    <title>eyes/eyes10</title>
    <desc>Created with Sketch.</desc>
    <defs></defs>
    <g id="eyes/eyes10" stroke="none" stroke-width="1" fill="none" fill-rule="evenodd">
        <g id="Group" transform="translate(156.500000, 100.000000)">
            <path d="M33.4539046,16.2761552 C33.4539046,24.9941552 26.1649046,31.9731552 17.1829046,31.9731552 C8.20490461,31.9731552 0.883904609,24.9941552 0.883904609,16.2761552 C0.883904609,7.54915519 8.20490461,0.421155195 17.1829046,0.421155195 C26.1649046,0.421155195 33.4539046,7.54915519 33.4539046,16.2761552" id="Fill-798" fill="#FFFFFF"></path>
            <path d="M27.0438046,16.5554552 C27.0438046,21.1344552 22.9438046,24.7484552 17.9908046,24.7484552 C12.9528046,24.7484552 8.90980461,21.1344552 8.90980461,16.5554552 C8.90980461,12.0144552 12.9528046,8.36545519 17.9908046,8.36545519 C22.9438046,8.36545519 27.0438046,12.0144552 27.0438046,16.5554552" id="Fill-799" fill="#444344"></path>
            <path d="M29.9246046,6.42855519 C27.2956046,2.76955519 22.5066046,0.0455551947 17.2606046,0.0455551947 C7.91960461,0.0455551947 0.712604609,7.40655519 0.712604609,16.4845552 C0.712604609,17.4765552 1.07260461,18.6555552 1.24660461,19.5955552 C0.863604609,17.5265552 1.83660461,15.4515552 2.87360461,13.7225552 C3.91760461,11.9815552 5.14560461,10.3165552 6.59260461,8.88855519 C8.52260461,6.98555519 10.8076046,5.47255519 13.3356046,4.48455519 C14.0426046,4.20855519 14.7746046,3.98055519 15.5106046,3.79855519 C16.8916046,3.45455519 18.2936046,3.25755519 19.7186046,3.27555519 C21.8636046,3.30155519 23.9616046,3.80255519 26.0256046,4.34955519 C27.4346046,4.72155519 29.0296046,5.18355519 29.9246046,6.42855519" id="Fill-800" fill="#5E5E5E"></path>
            <path d="M54.2586046,16.4626552 C54.2586046,25.1816552 61.5456046,32.1596552 70.5286046,32.1596552 C79.5066046,32.1596552 86.8266046,25.1816552 86.8266046,16.4626552 C86.8266046,7.73565519 79.5066046,0.607655195 70.5286046,0.607655195 C61.5456046,0.607655195 54.2586046,7.73565519 54.2586046,16.4626552" id="Fill-801" fill="#FFFFFF"></path>
            <path d="M60.6668046,16.7419552 C60.6668046,21.3219552 64.7678046,24.9349552 69.7208046,24.9349552 C74.7588046,24.9349552 78.8018046,21.3219552 78.8018046,16.7419552 C78.8018046,12.2009552 74.7588046,8.55295519 69.7208046,8.55295519 C64.7678046,8.55295519 60.6668046,12.2009552 60.6668046,16.7419552" id="Fill-802" fill="#444344"></path>
            <path d="M57.7869046,6.61505519 C60.4159046,2.95705519 65.2049046,0.232055195 70.4519046,0.232055195 C79.7919046,0.232055195 86.9989046,7.59405519 86.9989046,16.6720552 C86.9989046,17.6630552 86.6389046,18.8420552 86.4649046,19.7820552 C86.8469046,17.7130552 85.8749046,15.6380552 84.8379046,13.9100552 C83.7939046,12.1680552 82.5659046,10.5030552 81.1189046,9.07605519 C79.1879046,7.17205519 76.9039046,5.65905519 74.3759046,4.67205519 C73.6689046,4.39605519 72.9369046,4.16805519 72.1999046,3.98505519 C70.8199046,3.64205519 69.4169046,3.44505519 67.9929046,3.46305519 C65.8469046,3.48805519 63.7499046,3.99005519 61.6859046,4.53605519 C60.2759046,4.90805519 58.6819046,5.37105519 57.7869046,6.61505519" id="Fill-803" fill="#5E5E5E"></path>
        </g>
    </g>
</svg>