<?xml version="1.0" encoding="UTF-8"?>
<svg width="400px" height="400px" viewBox="0 0 400 400" version="1.1" xmlns="http://www.w3.org/2000/svg" xmlns:xlink="http://www.w3.org/1999/xlink">
    <!-- Generator: Sketch 51.3 (57544) - http://www.bohemiancoding.com/sketch -->
    <title>eyes/eyes4</title>
    <desc>Created with Sketch.</desc>
    <defs></defs>
    <g id="eyes/eyes4" stroke="none" stroke-width="1" fill="none" fill-rule="evenodd">
        <g id="Group-3" transform="translate(147.500000, 100.000000)">
            <path d="M97.3379,13.0755 C97.3559,13.0745 97.3709,13.0735 97.3889,13.0725 C97.3339,12.3165 97.2969,11.5585 97.2169,10.8045 C96.8199,7.1285 94.6349,4.9125 90.6919,4.3135 C88.4299,3.9695 86.1429,3.7485 83.8609,3.5005 C82.8259,3.3885 81.7829,3.2935 80.7379,3.2955 C79.5079,3.2985 78.2759,3.3855 77.0469,3.4865 C74.4279,3.7015 71.7829,3.8005 69.2009,4.2195 C65.1489,4.8775 62.5219,7.0945 61.7419,10.9625 C61.0409,14.4265 61.0979,17.8915 61.9079,21.3325 C63.2889,27.2195 67.8499,31.0485 74.2049,31.6585 C78.1599,32.0385 82.0979,31.8765 85.9859,31.0795 C88.9039,30.4815 91.5199,29.3315 93.5589,27.2305 C96.1169,24.5905 97.0979,21.3735 97.3199,17.9245 C97.4219,16.3125 97.3379,14.6915 97.3379,13.0755 M8.2539,14.7905 C8.3929,16.3685 8.4489,18.2235 8.7339,20.0475 C9.5289,25.0645 12.4239,28.5985 17.5839,30.3845 C22.4319,32.0605 27.4139,32.3445 32.5079,31.5735 C38.4509,30.6745 42.6229,27.0545 43.9199,21.5755 C44.7289,18.1415 44.7069,14.6955 44.1389,11.2475 C43.4919,7.3285 40.9039,4.8645 36.7269,4.3155 C33.3179,3.8675 29.8789,3.5945 26.4509,3.2585 C25.7049,3.1845 24.9299,3.0515 24.2029,3.1605 C20.5999,3.6985 16.9999,4.2655 13.4179,4.9075 C10.6779,5.3975 8.9809,7.0325 8.6129,9.5675 C8.3769,11.2005 8.3769,12.8645 8.2539,14.7905 M24.8419,0.2015 C31.9649,0.1765 38.9319,1.1225 45.7619,3.0145 C49.2479,3.9815 52.8459,4.0625 56.4039,3.5125 C60.0119,2.9565 63.5739,2.1665 67.1539,1.4635 C70.9959,0.7065 74.8829,0.3305 78.8049,0.2585 C85.2949,0.1385 91.7289,0.6785 98.1079,1.7425 C99.5629,1.9845 101.0039,2.3705 102.4039,2.8185 C103.7499,3.2505 104.6929,4.0965 104.7639,5.5455 C104.7789,5.8555 104.8519,6.1635 104.8789,6.4735 C104.9829,7.6925 104.5289,8.6035 103.3339,9.2365 C101.6229,10.1395 101.1639,11.7155 100.9789,13.4005 C100.6519,16.3845 100.4019,19.3795 99.9629,22.3495 C99.3519,26.4615 97.4829,29.9305 93.5939,32.2405 C91.5549,33.4495 89.3259,34.2875 86.9729,34.6655 C83.7789,35.1785 80.5549,35.5415 77.3279,35.8255 C76.2559,35.9195 75.1269,35.6205 74.0429,35.4145 C71.9159,35.0085 69.7309,34.7285 67.6989,34.0625 C62.8769,32.4815 59.9939,29.1365 58.7869,24.5945 C58.2679,22.6425 58.1879,20.5925 57.8629,18.5915 C57.5549,16.6875 57.2749,14.7735 56.8279,12.8965 C56.4939,11.4945 55.6539,10.3475 54.0469,9.9115 C51.9939,9.3555 49.8869,10.2435 49.1039,12.2155 C48.5669,13.5675 48.3009,15.0335 48.0859,16.4715 C47.7869,18.4965 47.7539,20.5555 47.4139,22.5725 C46.7049,26.7765 44.7749,30.3555 40.8519,32.7925 C38.2789,34.3885 35.3869,35.1075 32.3519,35.4015 C28.9039,35.7365 25.4609,35.7885 22.0179,35.3085 C19.2719,34.9275 16.6109,34.2605 14.1039,33.1415 C9.3849,31.0385 6.6599,27.4685 5.7379,22.7635 C5.2769,20.3995 5.2499,17.9635 5.0059,15.5615 C4.8869,14.4005 4.8009,13.2285 4.5509,12.0925 C4.2329,10.6525 3.3459,9.4835 2.1169,8.5675 C1.0489,7.7695 0.6269,6.7445 0.8559,5.5165 C1.0999,4.2165 1.8689,3.2675 3.2539,2.8265 C6.1599,1.8985 9.1679,1.4225 12.1989,1.0445 C16.3929,0.5205 20.6059,0.2115 24.8419,0.2015" id="Fill-181" fill="#4C4C4E"></path>
            <path d="M8.2539,14.7904 C8.3769,12.8644 8.3769,11.2004 8.6129,9.5674 C8.9809,7.0324 10.6779,5.3974 13.4179,4.9074 C16.9999,4.2664 20.5999,3.6984 24.2029,3.1604 C24.9299,3.0514 25.7049,3.1854 26.4509,3.2584 C29.8789,3.5944 33.3179,3.8674 36.7269,4.3154 C40.9039,4.8644 43.4919,7.3284 44.1389,11.2474 C44.7069,14.6954 44.7289,18.1424 43.9199,21.5754 C42.6229,27.0544 38.4509,30.6744 32.5079,31.5734 C27.4139,32.3444 22.4319,32.0614 17.5839,30.3844 C12.4239,28.5994 9.5289,25.0644 8.7339,20.0474 C8.4489,18.2244 8.3929,16.3684 8.2539,14.7904" id="Fill-183" fill="#FFFFFF"></path>
            <path d="M97.3379,13.0755 C97.3379,14.6915 97.4219,16.3125 97.3199,17.9245 C97.0979,21.3735 96.1169,24.5905 93.5589,27.2305 C91.5199,29.3315 88.9039,30.4815 85.9859,31.0795 C82.0979,31.8765 78.1599,32.0385 74.2049,31.6585 C67.8499,31.0485 63.2889,27.2195 61.9079,21.3325 C61.0979,17.8915 61.0409,14.4265 61.7419,10.9625 C62.5219,7.0945 65.1489,4.8775 69.2009,4.2195 C71.7829,3.8005 74.4279,3.7015 77.0469,3.4865 C78.2759,3.3855 79.5079,3.2985 80.7379,3.2955 C81.7829,3.2935 82.8259,3.3885 83.8609,3.5005 C86.1429,3.7485 88.4299,3.9695 90.6919,4.3135 C94.6349,4.9125 96.8199,7.1285 97.2169,10.8045 C97.2969,11.5585 97.3339,12.3165 97.3889,13.0725 C97.3709,13.0735 97.3559,13.0745 97.3379,13.0755" id="Fill-185" fill="#FFFFFF"></path>
            <path d="M36.1855,17.1117 C36.1855,21.6907 32.0835,25.3047 27.1305,25.3047 C22.0935,25.3047 18.0505,21.6907 18.0505,17.1117 C18.0505,12.5707 22.0935,8.9217 27.1305,8.9217 C32.0835,8.9217 36.1855,12.5707 36.1855,17.1117" id="Fill-187" fill="#444344"></path>
            <path d="M87.5391,17.4369 C87.5391,21.9709 83.4901,25.6179 78.4751,25.6179 C73.4471,25.6179 69.3911,21.9709 69.3911,17.4369 C69.3911,12.8989 73.4471,9.1219 78.4751,9.1219 C83.4901,9.1219 87.5391,12.8989 87.5391,17.4369" id="Fill-189" fill="#444344"></path>
        </g>
    </g>
</svg>