<svg height="308" viewBox="0 0 1440 308" width="1440" xmlns="http://www.w3.org/2000/svg" xmlns:xlink="http://www.w3.org/1999/xlink"><mask id="a" fill="#fff"><path d="m0 0h1440v354h-1440z" fill="#fff" fill-rule="evenodd"/></mask><g fill="none" fill-rule="evenodd" mask="url(#a)" opacity=".850725" transform="translate(0 -42.295529)"><g transform="translate(-204 21)"><path d="m120 345c515.65608-231.731038 586.855851-248.4491244 875-240 282 8.268962 499.52469 125.927473 565 139v101z" fill="#9ad0e3"/><path d="m288.347826 419.85421c142-61 779.000004-373.0000005 1288.000004-284 339.33333 59.333333 359.66666 159.666666 61 301-994.000004 29.333333-1443.666671 23.666666-1349.000004-17z" fill="#a2dbef"/><path d="m1004 318c-118.666667-94-413.333333-200-884-318-159.4438263 172.64351-159.4438263 287.64351 0 345 239.16574 86.034734 1062 114 884-27z" fill="#c9e9f5"/></g></g></svg>