<?xml version="1.0" encoding="UTF-8"?>
<svg width="400px" height="400px" viewBox="0 0 400 400" version="1.1" xmlns="http://www.w3.org/2000/svg" xmlns:xlink="http://www.w3.org/1999/xlink">
    <!-- Generator: Sketch 51.3 (57544) - http://www.bohemiancoding.com/sketch -->
    <title>mouths/mouth8</title>
    <desc>Created with Sketch.</desc>
    <defs>
        <path d="M0.122,11.2878052 C0.122,11.2878052 24.862,8.71580518 29.499,0.488805176 C34.139,8.71580518 58.878,11.2878052 58.878,11.2878052 C56.916,9.01713851 54.3403511,12.2195851 51.1510534,20.895145 L29.499,28.5340137 L2.90552948,18.1753044 C3.01184316,11.3129716 2.084,9.01713851 0.122,11.2878052 Z" id="path-1"></path>
    </defs>
    <g id="mouths/mouth8" stroke="none" stroke-width="1" fill="none" fill-rule="evenodd">
        <path d="M229.378,158.287805 C226.435,154.881805 224.897,149.904805 224.897,149.904805 C219.041,138.850805 201.933,139.123805 199.999,139.189805 C198.066,139.123805 180.958,138.850805 175.104,149.904805 C175.104,149.904805 173.565,154.881805 170.622,158.287805 C170.622,158.287805 195.362,155.715805 199.999,147.488805 C204.639,155.715805 229.378,158.287805 229.378,158.287805" id="Fill-80" fill-opacity="0.647305254" fill="#2C2C2C"></path>
        <g id="Group" transform="translate(170.000000, 147.000000)">
            <g transform="translate(0.500000, 0.000000)">
                <mask id="mask-2" fill="white">
                    <use xlink:href="#path-1"></use>
                </mask>
                <g id="Path"></g>
                <path d="M38.2821485,18.6786943 C33.2451485,20.6256943 27.3171485,20.7996943 22.1551485,19.2076943 C18.3741485,18.0416943 13.8451485,15.7486943 12.4721485,11.7446943 C11.7941485,9.76669431 11.7051485,7.01469431 13.1581485,5.35669431 C15.1901485,3.03569431 18.8981485,4.19869431 21.3371485,5.13369431 C24.3361485,6.28269431 27.6181485,7.07869431 30.8501485,6.96569431 C34.7211485,6.83069431 38.2391485,4.32669431 42.1551485,4.45769431 C47.2371485,4.62569431 47.5481485,10.2666943 45.1241485,13.6536943 C43.4691485,15.9656943 41.0441485,17.6126943 38.2821485,18.6786943" id="Fill-95" fill="#808284" mask="url(#mask-2)"></path>
                <path d="M38.486373,19.3952823 C33.449373,21.3422823 27.521373,21.5162823 22.359373,19.9242823 C18.578373,18.7582823 14.049373,16.4652823 12.676373,12.4612823 C11.998373,10.4832823 11.909373,7.73128228 13.362373,6.07328228 C15.394373,3.75228228 19.102373,4.91528228 21.541373,5.85028228 C24.540373,6.99928228 27.822373,7.79528228 31.054373,7.68228228 C34.925373,7.54728228 38.443373,5.04328228 42.359373,5.17428228 C47.441373,5.34228228 47.752373,10.9832823 45.328373,14.3702823 C43.673373,16.6822823 41.248373,18.3292823 38.486373,19.3952823 Z" id="Stroke-97" stroke="#404041" stroke-width="5" mask="url(#mask-2)"></path>
            </g>
        </g>
    </g>
</svg>