<?xml version="1.0" encoding="UTF-8"?>
<svg width="400px" height="400px" viewBox="0 0 400 400" version="1.1" xmlns="http://www.w3.org/2000/svg" xmlns:xlink="http://www.w3.org/1999/xlink">
    <!-- Generator: Sketch 51.3 (57544) - http://www.bohemiancoding.com/sketch -->
    <title>mouths/mouth4</title>
    <desc>Created with Sketch.</desc>
    <defs></defs>
    <g id="mouths/mouth4" stroke="none" stroke-width="1" fill="none" fill-rule="evenodd">
        <path d="M204.587828,170.960273 C204.587828,170.960273 203.808828,170.923273 203.174828,169.773273 C203.174828,169.773273 203.630828,168.878273 199.963828,168.253273 C196.588828,168.710273 196.588828,169.773273 196.588828,169.773273 C196.037828,170.810273 195.175828,170.960273 195.175828,170.960273 C173.824828,177.646273 175.763828,161.056273 175.763828,161.056273 C177.750828,147.401273 199.881828,147.515273 199.881828,147.515273 C199.881828,147.515273 222.012828,147.401273 223.999828,161.056273 C223.999828,161.056273 225.938828,177.646273 204.587828,170.960273 M237.103828,165.954273 C230.918828,137.731273 199.881828,139.806273 199.881828,139.806273 C199.881828,139.806273 167.731828,137.509273 162.659828,165.954273 C162.659828,165.954273 159.338828,176.272273 173.275828,185.523273 C173.275828,185.523273 169.525828,181.398273 171.775828,173.585273 C171.775828,173.585273 171.136828,188.882273 187.213828,191.460273 C187.213828,191.460273 196.649828,192.444273 191.969828,201.632273 C191.969828,201.632273 205.886828,200.548273 214.150828,194.772273 C214.150828,194.772273 224.483828,189.353273 226.463828,177.835273 C226.463828,177.835273 227.052828,183.466273 222.219828,190.216273 C222.219828,190.216273 241.213828,184.710273 237.103828,165.954273" id="Fill-78" fill-opacity="0.647305254" fill="#2C2C2C"></path>
        <g id="Group" transform="translate(182.500000, 151.000000)">
            <path d="M26.2821485,14.6786943 C21.2451485,16.6256943 15.3171485,16.7996943 10.1551485,15.2076943 C6.37414848,14.0416943 1.84514848,11.7486943 0.472148482,7.74469431 C-0.205851518,5.76669431 -0.294851518,3.01469431 1.15814848,1.35669431 C3.19014848,-0.964305695 6.89814848,0.198694305 9.33714848,1.13369431 C12.3361485,2.28269431 15.6181485,3.07869431 18.8501485,2.96569431 C22.7211485,2.83069431 26.2391485,0.326694305 30.1551485,0.457694305 C35.2371485,0.625694305 35.5481485,6.26669431 33.1241485,9.65369431 C31.4691485,11.9656943 29.0441485,13.6126943 26.2821485,14.6786943" id="Fill-95" fill="#808284"></path>
            <path d="M26.486373,15.3952823 C21.449373,17.3422823 15.521373,17.5162823 10.359373,15.9242823 C6.57837295,14.7582823 2.04937295,12.4652823 0.676372951,8.46128228 C-0.0016270486,6.48328228 -0.0906270486,3.73128228 1.36237295,2.07328228 C3.39437295,-0.247717718 7.10237295,0.915282282 9.54137295,1.85028228 C12.540373,2.99928228 15.822373,3.79528228 19.054373,3.68228228 C22.925373,3.54728228 26.443373,1.04328228 30.359373,1.17428228 C35.441373,1.34228228 35.752373,6.98328228 33.328373,10.3702823 C31.673373,12.6822823 29.248373,14.3292823 26.486373,15.3952823 Z" id="Stroke-97" stroke="#404041" stroke-width="5"></path>
        </g>
    </g>
</svg>