<?xml version="1.0" encoding="UTF-8"?>
<svg width="400px" height="400px" viewBox="0 0 400 400" version="1.1" xmlns="http://www.w3.org/2000/svg" xmlns:xlink="http://www.w3.org/1999/xlink">
    <!-- Generator: Sketch 51.3 (57544) - http://www.bohemiancoding.com/sketch -->
    <title>mouths/mouth3</title>
    <desc>Created with Sketch.</desc>
    <defs></defs>
    <g id="mouths/mouth3" stroke="none" stroke-width="1" fill="none" fill-rule="evenodd">
        <g id="Group" transform="translate(183.000000, 151.000000)">
            <path d="M13.13375,7.8223 L24.79375,6.6573 L25.74275,2.5133 C25.58375,2.5553 25.41975,2.5913 25.26275,2.6373 C24.80375,1.5663 23.97675,0.7153 22.51675,0.7303 C20.64475,0.7533 19.31475,2.7003 18.78775,4.3763 C18.74675,4.3793 18.70575,4.3883 18.66575,4.3883 C18.59075,4.3913 18.51575,4.3883 18.44275,4.3893 C18.12775,2.4193 17.02875,-0.1367 14.61975,0.2403 C13.32275,0.4423 11.94075,1.6633 11.13175,3.0693 C10.97375,3.0153 10.81675,2.9563 10.65675,2.8993 L13.13375,7.8223 Z" id="Fill-87" fill="#FF83CD"></path>
            <path d="M26.35645,18.6910071 C21.31945,20.6380071 15.39145,20.8120071 10.22945,19.2200071 C6.44845,18.0560071 1.91945,15.7610071 0.54645,11.7570071 C-0.13155,9.77900712 -0.22155,7.02700712 1.23245,5.36900712 C3.26445,3.04800712 6.97145,4.21200712 9.41145,5.14600712 C12.41045,6.29500712 15.69245,7.09100712 18.92445,6.97800712 C22.79545,6.84300712 26.31345,4.33900712 30.22945,4.47000712 C35.31145,4.63800712 35.62245,10.2790071 33.19845,13.6680071 C31.54345,15.9780071 29.11845,17.6250071 26.35645,18.6910071" id="Fill-91" fill="#808284"></path>
            <path d="M18.93355,21.1973 L10.93655,21.5983 C11.19655,21.6613 11.45755,21.7223 11.71855,21.7783 C12.25655,23.1983 13.46355,24.3713 15.13555,24.8363 C16.78255,25.2913 19.14855,24.9013 20.58955,24.0273 C21.34455,23.5703 21.80655,22.7843 22.14555,21.9523 C22.45555,21.8973 22.75355,21.8133 23.06055,21.7503 L18.93355,21.1973 Z" id="Fill-89" fill="#FF83CD"></path>
            <path d="M26.35645,18.5088 C21.31945,20.4558 15.39145,20.6298 10.22945,19.0378 C6.44845,17.8738 1.91945,15.5788 0.54645,11.5748 C-0.13155,9.5968 -0.22155,6.8448 1.23245,5.1868 C3.26445,2.8658 6.97145,4.0298 9.41145,4.9638 C12.41045,6.1128 15.69245,6.9088 18.92445,6.7958 C22.79545,6.6608 26.31345,4.1568 30.22945,4.2878 C35.31145,4.4558 35.62245,10.0968 33.19845,13.4858 C31.54345,15.7958 29.11845,17.4428 26.35645,18.5088 Z" id="Stroke-93" stroke="#404041" stroke-width="5"></path>
        </g>
    </g>
</svg>