<?xml version="1.0" encoding="UTF-8"?>
<svg width="400px" height="400px" viewBox="0 0 400 400" version="1.1" xmlns="http://www.w3.org/2000/svg" xmlns:xlink="http://www.w3.org/1999/xlink">
    <!-- Generator: Sketch 51.3 (57544) - http://www.bohemiancoding.com/sketch -->
    <title>mouths/mouth5</title>
    <desc>Created with Sketch.</desc>
    <defs></defs>
    <g id="mouths/mouth5" stroke="none" stroke-width="1" fill="none" fill-rule="evenodd">
        <g id="Group" transform="translate(182.500000, 151.000000)">
            <path d="M26.2821485,14.6786943 C21.2451485,16.6256943 15.3171485,16.7996943 10.1551485,15.2076943 C6.37414848,14.0416943 1.84514848,11.7486943 0.472148482,7.74469431 C-0.205851518,5.76669431 -0.294851518,3.01469431 1.15814848,1.35669431 C3.19014848,-0.964305695 6.89814848,0.198694305 9.33714848,1.13369431 C12.3361485,2.28269431 15.6181485,3.07869431 18.8501485,2.96569431 C22.7211485,2.83069431 26.2391485,0.326694305 30.1551485,0.457694305 C35.2371485,0.625694305 35.5481485,6.26669431 33.1241485,9.65369431 C31.4691485,11.9656943 29.0441485,13.6126943 26.2821485,14.6786943" id="Fill-95" fill="#808284"></path>
            <path d="M26.486373,15.3952823 C21.449373,17.3422823 15.521373,17.5162823 10.359373,15.9242823 C6.57837295,14.7582823 2.04937295,12.4652823 0.676372951,8.46128228 C-0.0016270486,6.48328228 -0.0906270486,3.73128228 1.36237295,2.07328228 C3.39437295,-0.247717718 7.10237295,0.915282282 9.54137295,1.85028228 C12.540373,2.99928228 15.822373,3.79528228 19.054373,3.68228228 C22.925373,3.54728228 26.443373,1.04328228 30.359373,1.17428228 C35.441373,1.34228228 35.752373,6.98328228 33.328373,10.3702823 C31.673373,12.6822823 29.248373,14.3292823 26.486373,15.3952823 Z" id="Stroke-97" stroke="#404041" stroke-width="5"></path>
        </g>
        <path d="M231.158721,159.512428 C223.516721,137.674428 202.339721,139.709428 202.339721,139.709428 L202.983721,147.936428 C202.983721,147.936428 219.845721,145.946428 224.373721,159.543428 C224.373721,159.543428 227.709721,172.504428 212.442721,176.760428 C212.442721,176.760428 206.616721,177.537428 204.341721,171.028428 C204.341721,171.028428 203.667721,169.237428 200.004721,169.315428 C196.341721,169.237428 195.666721,171.028428 195.666721,171.028428 C193.390721,177.537428 187.565721,176.760428 187.565721,176.760428 C172.299721,172.504428 175.635721,159.543428 175.635721,159.543428 C180.163721,145.946428 196.964721,147.998428 196.964721,147.998428 C196.964721,147.998428 198.415721,139.711428 198.415721,139.709428 C197.825721,139.627428 191.953721,140.092428 191.658721,140.147428 C186.783721,141.039428 181.776721,142.717428 177.915721,146.065428 C175.968721,147.754428 174.351721,149.828428 172.804721,151.908428 C171.325721,153.895428 170.027721,156.053428 169.298721,158.473428 C168.882721,159.860428 168.720721,161.367428 168.796721,162.821428 C169.050721,167.653428 170.715721,172.526428 173.076721,176.658428 C173.757721,177.850428 174.506721,178.992428 175.336721,180.074428 C176.377721,181.434428 177.538721,182.690428 178.779721,183.850428 C178.779721,183.850428 185.129721,188.518428 200.004721,188.018428 C214.879721,188.518428 221.228721,183.850428 221.228721,183.850428 C232.637721,173.174428 231.158721,159.512428 231.158721,159.512428" id="Fill-79" fill-opacity="0.647305254" fill="#2C2C2C"></path>
    </g>
</svg>