<?xml version="1.0" encoding="UTF-8"?>
<svg width="400px" height="400px" viewBox="0 0 400 400" version="1.1" xmlns="http://www.w3.org/2000/svg" xmlns:xlink="http://www.w3.org/1999/xlink">
    <!-- Generator: Sketch 51.3 (57544) - http://www.bohemiancoding.com/sketch -->
    <title>mouths/mouth2</title>
    <desc>Created with Sketch.</desc>
    <defs></defs>
    <g id="mouths/mouth2" stroke="none" stroke-width="1" fill="none" fill-rule="evenodd">
        <g id="Group" transform="translate(182.500000, 151.000000)">
            <path d="M26.6510767,14.9992149 C21.6130767,16.9462149 15.6860767,17.1202149 10.5240767,15.5282149 C6.74307673,14.3642149 2.21407673,12.0692149 0.841076726,8.06521492 C0.164076726,6.08721492 0.0740767257,3.33521492 1.52707673,1.67721492 C3.55807673,-0.643785083 7.26707673,0.520214917 9.70607673,1.45421492 C12.7050767,2.60321492 15.9870767,3.39921492 19.2190767,3.28621492 C23.0900767,3.15121492 26.6080767,0.647214917 30.5240767,0.778214917 C35.6060767,0.946214917 35.9170767,6.58721492 33.4930767,9.97621492 C31.8380767,12.2862149 29.4140767,13.9332149 26.6510767,14.9992149" id="Fill-15" fill="#808284"></path>
            <path d="M9.44141391,3.11151492 C9.44141391,3.11151492 10.5854139,16.3385149 17.9554139,4.56251492 C17.9554139,4.56251492 24.3754139,16.6465149 25.8884139,3.27051492 C25.8884139,3.27051492 18.2954139,5.61251492 9.44141391,3.11151492" id="Fill-19" fill="#FFFFFF"></path>
            <path d="M26.6517789,14.9992149 C21.6157789,16.9462149 15.6867789,17.1202149 10.5237789,15.5282149 C6.74377893,14.3642149 2.21477893,12.0692149 0.841778926,8.06521492 C0.162778926,6.08721492 0.074778926,3.33521492 1.52777893,1.67721492 C3.55877893,-0.643785083 7.26777893,0.520214917 9.70677893,1.45421492 C12.7057789,2.60321492 15.9877789,3.39921492 19.2197789,3.28621492 C23.0907789,3.15121492 26.6077789,0.647214917 30.5237789,0.778214917 C35.6057789,0.946214917 35.9177789,6.58721492 33.4927789,9.97621492 C31.8387789,12.2862149 29.4127789,13.9332149 26.6517789,14.9992149 Z" id="Stroke-21" stroke="#404041" stroke-width="5"></path>
        </g>
    </g>
</svg>