<?xml version="1.0" encoding="UTF-8"?>
<svg width="400px" height="400px" viewBox="0 0 400 400" version="1.1" xmlns="http://www.w3.org/2000/svg" xmlns:xlink="http://www.w3.org/1999/xlink">
    <!-- Generator: Sketch 51.3 (57544) - http://www.bohemiancoding.com/sketch -->
    <title>bodies/body2</title>
    <desc>Created with Sketch.</desc>
    <defs></defs>
    <g id="bodies/body2" stroke="none" stroke-width="1" fill="none" fill-rule="evenodd">
        <path d="M279.890782,241.518361 C278.788782,221.152361 268.447782,207.742361 260.212782,189.798361 C254.445782,177.112361 256.783782,163.294361 260.384782,150.384361 C262.552782,142.608361 265.154782,134.921361 266.714782,126.998361 C269.046782,115.169361 269.390782,102.696361 265.617782,91.0993611 C264.322782,87.1163611 262.437782,83.0723611 260.175782,79.5123611 C255.785782,72.6063611 250.488782,66.4003611 243.529782,61.7953611 C232.251782,54.3343611 218.281782,50.2643611 204.661782,50.0183611 C196.476782,49.8713611 187.148782,50.5883611 179.261782,52.8453611 C166.509782,56.4963611 154.306782,62.7183611 145.471782,72.5093611 C143.068782,75.1733611 141.027782,78.1293611 139.390782,81.2933611 C133.792782,92.1163611 131.877782,104.293361 132.589782,116.303361 C132.949782,122.377361 133.929782,128.410361 135.320782,134.339361 C136.537782,139.535361 138.055782,144.654361 139.533782,149.787361 C142.816782,161.199361 144.421782,172.846361 141.433782,184.501361 C140.568782,187.874361 139.318782,191.160361 137.810782,194.313361 C132.155782,206.134361 124.940782,217.132361 121.814782,229.964361 C120.890782,233.760361 120.304782,237.623361 120.080782,241.518361 C119.178782,258.250361 123.430782,277.091361 139.511782,286.218361 C145.900782,289.845361 152.256782,292.306361 159.341782,294.419361 C165.562782,296.271361 171.958782,297.535361 178.372782,298.574361 C196.601782,301.529361 214.777782,301.304361 232.660782,296.591361 C237.685782,295.263361 242.619782,293.656361 247.443782,291.749361 C252.386782,289.798361 257.204782,287.535361 261.841782,284.972361 C265.419782,282.997361 268.829782,280.435361 271.195782,277.132361 C275.802782,270.701361 278.468782,262.580361 279.511782,254.869361 C280.107782,250.462361 280.130782,245.953361 279.890782,241.518361" id="Fill-115" fill="#00B9F0"></path>
    </g>
</svg>