<?xml version="1.0" encoding="UTF-8"?>
<svg width="400px" height="400px" viewBox="0 0 400 400" version="1.1" xmlns="http://www.w3.org/2000/svg" xmlns:xlink="http://www.w3.org/1999/xlink">
    <!-- Generator: Sketch 51.3 (57544) - http://www.bohemiancoding.com/sketch -->
    <title>bodies/body4</title>
    <desc>Created with Sketch.</desc>
    <defs></defs>
    <g id="bodies/body4" stroke="none" stroke-width="1" fill="none" fill-rule="evenodd">
        <path d="M267.062423,113.700101 C265.089423,105.354101 262.203423,97.203101 258.408423,89.602101 C256.838423,86.461101 255.074423,83.415101 253.083423,80.531101 C242.732423,65.533101 227.447423,52.275101 208.931423,50.544101 C197.614423,49.486101 186.329423,50.643101 175.761423,55.063101 C169.373423,57.735101 163.716423,61.825101 158.715423,66.647101 C143.107423,81.696101 132.541423,103.631101 130.541423,125.447101 C129.958423,131.810101 129.876423,138.600101 130.634423,144.955101 C132.685423,162.138101 138.945423,178.301101 144.874423,194.390101 C146.535423,198.899101 148.175423,203.416101 149.697423,207.975101 C151.671423,213.888101 153.440423,219.879101 154.803423,225.971101 C159.010423,244.773101 153.625423,274.844101 171.235423,284.047101 C185.001423,291.240101 201.527423,293.625101 216.487423,289.129101 C220.676423,287.871101 224.968423,286.221101 228.861423,284.189101 C246.500423,274.984101 241.126423,244.921101 245.311423,226.121101 C248.808423,210.409101 254.977423,195.362101 260.421423,180.295101 C265.224423,167.003101 269.313423,153.158101 269.855423,138.908101 C270.011423,134.791101 269.865423,130.658101 269.363423,126.569101 C268.834423,122.260101 268.067423,117.954101 267.062423,113.700101" id="Fill-159" fill="#00B9F0"></path>
    </g>
</svg>