<?xml version="1.0" encoding="UTF-8"?>
<svg width="400px" height="400px" viewBox="0 0 400 400" version="1.1" xmlns="http://www.w3.org/2000/svg" xmlns:xlink="http://www.w3.org/1999/xlink">
    <!-- Generator: Sketch 51.3 (57544) - http://www.bohemiancoding.com/sketch -->
    <title>bodies/body5</title>
    <desc>Created with Sketch.</desc>
    <defs></defs>
    <g id="bodies/body5" stroke="none" stroke-width="1" fill="none" fill-rule="evenodd">
        <path d="M285.825239,144.661265 C284.836239,139.204265 284.162239,133.507265 283.464239,127.833265 L283.464239,118.830265 C283.464239,53.0782647 210.074239,49.4882647 199.929239,50.2572647 C199.929239,50.2572647 121.696239,47.0772647 116.406239,118.604265 L116.406239,127.333265 C115.755239,132.573265 115.102239,137.902265 114.180239,143.083265 C111.479239,157.657265 109.655239,173.655265 110.638239,188.689265 C111.577239,202.932265 112.435239,216.499265 116.034239,230.203265 C116.840239,233.202265 117.897239,236.245265 119.119239,239.079265 C134.054239,293.895265 199.929239,291.407265 199.929239,291.407265 C209.209239,292.118265 271.416239,289.046265 281.934239,238.108265 C282.721239,236.130265 283.402239,233.975265 283.972239,231.931265 C287.575239,218.225265 288.429239,204.510265 289.353239,190.361265 C290.354239,175.373265 288.532239,159.390265 285.825239,144.661265" id="Fill-181" fill="#00B9F0"></path>
    </g>
</svg>