<?xml version="1.0" encoding="UTF-8"?>
<svg width="400px" height="400px" viewBox="0 0 400 400" version="1.1" xmlns="http://www.w3.org/2000/svg" xmlns:xlink="http://www.w3.org/1999/xlink">
    <!-- Generator: Sketch 51.3 (57544) - http://www.bohemiancoding.com/sketch -->
    <title>bodies/body3</title>
    <desc>Created with Sketch.</desc>
    <defs></defs>
    <g id="bodies/body3" stroke="none" stroke-width="1" fill="none" fill-rule="evenodd">
        <path d="M260.439158,228.341669 C259.892158,198.119669 260.082158,167.726669 260.345158,137.504669 C260.550158,115.210669 262.445158,87.2616688 250.972158,69.3936688 C238.209158,49.5436688 212.775158,50.3526688 194.719158,50.1806688 C189.358158,50.1336688 183.897158,50.7826688 178.598158,51.6816688 C169.188158,53.2796688 159.547158,56.7626688 152.772158,65.7746688 C147.350158,72.9796688 144.258158,82.3636688 142.442158,91.9376688 C139.208158,109.389669 139.196158,127.453669 139.592158,145.223669 C140.258158,175.368669 139.270158,205.546669 140.430158,235.606669 C140.751158,243.512669 141.124158,251.341669 142.530158,259.046669 C142.731158,259.973669 142.961158,261.068669 143.200158,262.147669 C143.643158,267.305669 145.186158,272.011669 147.532158,275.905669 C148.975158,279.218669 150.754158,282.316669 152.854158,285.214669 C159.631158,294.222669 169.272158,297.710669 178.688158,299.302669 C189.307158,300.945669 200.071158,301.362669 210.779158,300.624669 C220.492158,299.974669 230.566158,298.575669 239.552158,292.866669 C243.687158,290.325669 247.996158,286.355669 251.062158,281.591669 C260.050158,267.563669 260.783158,247.409669 260.439158,228.341669" id="Fill-137" fill="#00B9F0"></path>
    </g>
</svg>