<?xml version="1.0" encoding="UTF-8"?>
<svg width="400px" height="400px" viewBox="0 0 400 400" version="1.1" xmlns="http://www.w3.org/2000/svg" xmlns:xlink="http://www.w3.org/1999/xlink">
    <!-- Generator: Sketch 51.3 (57544) - http://www.bohemiancoding.com/sketch -->
    <title>bodies/body6</title>
    <desc>Created with Sketch.</desc>
    <defs></defs>
    <g id="bodies/body6" stroke="none" stroke-width="1" fill="none" fill-rule="evenodd">
        <path d="M283.578498,198.447305 C279.730498,185.791305 271.528498,175.035305 267.671498,162.293305 C259.104498,133.988305 262.304498,102.378305 247.065498,76.1213054 C242.501498,68.2563054 235.932498,61.7603054 228.098498,57.1103054 C211.802498,47.4373054 185.766498,48.0663054 170.015498,57.8803054 C154.181498,67.7443054 146.525498,84.6083054 142.759498,102.230305 C139.318498,118.330305 138.421498,134.888305 134.677498,150.918305 C132.868498,158.660305 130.922498,167.033305 127.550498,174.215305 C123.817498,182.149305 119.017498,189.220305 116.419498,197.771305 C106.595498,230.085305 105.927498,278.847305 142.874498,292.265305 C147.979498,294.125305 153.130498,296.941305 158.600498,297.443305 C158.924498,297.472305 159.262498,297.455305 159.591498,297.472305 C161.723498,297.972305 163.860498,298.449305 165.980498,298.926305 C172.391498,300.369305 178.852498,300.728305 185.352498,300.642305 C191.712498,300.718305 198.013498,300.543305 204.304498,300.174305 C211.986498,300.222305 219.744498,300.386305 227.166498,299.015305 C230.728498,298.357305 234.368498,298.332305 237.981498,298.185305 C239.132498,298.220305 240.279498,298.220305 241.398498,298.117305 C242.345498,298.033305 243.276498,297.859305 244.202498,297.650305 C245.645498,297.435305 247.072498,297.154305 248.475498,296.701305 C250.485498,296.062305 253.145498,295.289305 254.728498,293.879305 C255.527498,293.549305 256.328498,293.236305 257.127498,292.947305 C294.074498,279.525305 293.404498,230.765305 283.578498,198.447305" id="Fill-203" fill="#00B9F0"></path>
    </g>
</svg>