<?xml version="1.0" encoding="UTF-8"?>
<svg width="400px" height="400px" viewBox="0 0 400 400" version="1.1" xmlns="http://www.w3.org/2000/svg" xmlns:xlink="http://www.w3.org/1999/xlink">
    <!-- Generator: Sketch 51.3 (57544) - http://www.bohemiancoding.com/sketch -->
    <title>legs</title>
    <desc>Created with Sketch.</desc>
    <defs></defs>
    <g id="legs" stroke="none" stroke-width="1" fill="none" fill-rule="evenodd">
        <path d="M183.36,400.2539 L137.752,400.2539 C136.11,397.7379 135.185,394.9109 135.185,391.9219 C135.185,381.8169 145.717,373.5599 159.007,372.9589 C152.568,318.1149 163.677,260.3539 164.184,257.7689 C164.821,254.5179 167.976,252.3999 171.225,253.0349 C174.476,253.6719 176.596,256.8239 175.96,260.0759 C175.838,260.7019 164.298,320.7869 171.32,374.7149 C179.949,377.7479 185.927,384.3109 185.927,391.9219 C185.927,394.9109 185.002,397.7379 183.36,400.2539 Z M216.6393,400.2539 C214.9973,397.7379 214.0723,394.9109 214.0723,391.9219 C214.0723,384.3109 220.0503,377.7479 228.6793,374.7149 C235.7013,320.7869 224.1613,260.7019 224.0383,260.0759 C223.4033,256.8239 225.5233,253.6719 228.7753,253.0349 C232.0233,252.3999 235.1783,254.5179 235.8163,257.7689 C236.3223,260.3539 247.4313,318.1149 240.9923,372.9589 C254.2833,373.5599 264.8143,381.8169 264.8143,391.9219 C264.8143,394.9109 263.8903,397.7379 262.2473,400.2539 L216.6393,400.2539 Z" fill="#424242"></path>
    </g>
</svg>