<?xml version="1.0" encoding="UTF-8"?>
<svg width="400px" height="400px" viewBox="0 0 400 400" version="1.1" xmlns="http://www.w3.org/2000/svg" xmlns:xlink="http://www.w3.org/1999/xlink">
    <!-- Generator: Sketch 51.3 (57544) - http://www.bohemiancoding.com/sketch -->
    <title>hairs/front/hair17</title>
    <desc>Created with Sketch.</desc>
    <defs></defs>
    <g id="hairs/front/hair17" stroke="none" stroke-width="1" fill="none" fill-rule="evenodd">
        <path d="M232.683166,60.0678575 L232.968523,60.6753349 C232.96152,60.5702956 232.796958,60.3567156 232.683166,60.0678575 M237.331156,49.7529958 C236.200233,47.186535 233.982152,44.1438959 230.776702,42.4405081 C230.191983,42.354726 229.712304,42.2882011 228.978779,42.0431094 C228.798461,41.4111228 228.793209,41.0224773 228.595385,40.5042833 C226.95152,34.9547056 224.157474,28.4615247 217.624028,26.6128326 C202.862502,22.0068582 187.542516,27.5564358 179.762603,39.56068 C175.370209,40.490278 171.299935,42.2549387 168.222283,44.2034181 C161.48226,49.0072166 158.97357,54.7983847 158.938557,61.3440853 C158.863279,64.3674672 158.696967,67.3015656 158.957814,70.1008636 C158.97357,72.7110909 159.42699,75.2110268 158.97357,77.5586557 C158.737232,78.4077236 158.502644,79.3513268 158.248799,80.2266545 C156.9148,80.6433105 155.481013,81.1930163 154.08574,81.1527513 C150.243052,81.0337067 144.632201,78.9451748 145.908429,74.7908695 C146.479143,72.8581459 148.322583,70.8168817 150.166023,69.4338639 C144.513157,71.9513064 140.474395,77.3345718 141.055612,83.0504617 C141.559801,87.4218483 144.612944,89.5051282 148.273565,90.2859205 C151.407238,91.5428911 155.727855,92.031324 159.353463,91.355571 C165.428237,90.5660254 170.153256,87.6564361 174.33207,84.3967157 C176.205272,83.0504617 178.397092,81.200019 179.507008,79.3653321 C179.682073,79.3513268 179.774858,79.3443242 179.774858,79.0764739 C179.671569,80.2564157 179.321438,81.200019 178.859265,82.3344437 C177.080599,87.2537854 172.830008,89.5664012 167.92117,91.5236339 C179.319688,93.9500423 188.388083,86.7495966 192.729708,78.0365846 C194.545138,74.706838 195.697069,71.6957107 197.731331,68.640817 C200.593652,65.8432697 204.385572,62.9774468 208.800725,61.7589906 C211.153606,62.7306044 212.976038,64.5530366 213.54325,66.4017288 C214.999796,65.4581255 215.393693,62.8076332 215.393693,60.8521511 C218.933518,60.8521511 221.433454,61.7589906 223.129839,64.5547873 C224.28002,66.877907 224.994287,65.4581255 226.622397,64.089113 C227.427698,63.6059321 227.413693,62.9424337 228.34154,63.6321919 C229.269388,64.5530366 228.103451,65.4581255 228.47284,66.3246999 C230.191983,69.1572604 236.665907,60.9852009 237.339909,59.9085478 C239.440696,56.6768379 238.738683,53.3926084 237.331156,49.7529958" id="Fill-153" fill="#0E76AA"></path>
    </g>
</svg>