<?xml version="1.0" encoding="UTF-8"?>
<svg width="400px" height="400px" viewBox="0 0 400 400" version="1.1" xmlns="http://www.w3.org/2000/svg" xmlns:xlink="http://www.w3.org/1999/xlink">
    <!-- Generator: Sketch 51.3 (57544) - http://www.bohemiancoding.com/sketch -->
    <title>hairs/front/hair6</title>
    <desc>Created with Sketch.</desc>
    <defs></defs>
    <g id="hairs/front/hair6" stroke="none" stroke-width="1" fill="none" fill-rule="evenodd">
        <path d="M198.9996,46.4434895 C198.9996,46.4434895 135.2816,43.6724895 128.4996,104.863489 C133.5636,105.352489 138.6036,103.668489 143.9426,100.640489 C149.7806,97.3304895 154.7376,91.4714895 163.9976,91.7444895 C174.1406,92.0434895 174.9356,87.3854895 179.8696,83.1954895 C188.6346,75.7514895 204.1906,78.4864895 212.2746,70.3434895 C214.3536,68.2514895 216.0486,65.4804895 217.2476,62.4904895 C219.4936,71.6954895 228.9466,77.0604895 237.3536,79.3974895 C239.4746,79.9864895 242.1016,80.9134895 242.9046,83.2014895 C244.6446,88.1684895 245.7236,93.3274895 250.4716,96.5794895 C254.4756,99.3214895 259.3106,100.553489 264.0346,101.657489 C265.4956,101.999489 267.6476,102.123489 269.4996,101.705489 C264.6836,48.7134895 207.2216,45.7584895 198.9996,46.4434895" id="Fill-440" fill="#0E76AA"></path>
    </g>
</svg>