<?xml version="1.0" encoding="UTF-8"?>
<svg width="400px" height="400px" viewBox="0 0 400 400" version="1.1" xmlns="http://www.w3.org/2000/svg" xmlns:xlink="http://www.w3.org/1999/xlink">
    <!-- Generator: Sketch 51.3 (57544) - http://www.bohemiancoding.com/sketch -->
    <title>hairs/front/hair3</title>
    <desc>Created with Sketch.</desc>
    <defs></defs>
    <g id="hairs/front/hair3" stroke="none" stroke-width="1" fill="none" fill-rule="evenodd">
        <path d="M275.946479,41.4601026 C275.712479,51.4281026 268.975479,55.9891026 261.404479,50.6631026 C256.446479,47.1771026 254.090479,39.3301026 249.239479,35.5681026 C243.469479,31.0951026 235.301479,28.9201026 230.628479,36.3831026 C227.607479,41.2051026 227.251479,46.5481026 228.886479,51.3711026 C215.146479,46.1661026 202.291479,45.7481026 198.738479,46.0621026 C198.738479,46.0621026 179.715479,45.1851026 161.467479,55.0331026 C164.062479,49.6721026 164.205479,43.5231026 160.914479,38.1411026 C156.431479,30.8031026 148.202479,33.2011026 142.320479,37.8331026 C137.372479,41.7291026 134.810479,49.6431026 129.766479,53.2661026 C122.057479,58.8001026 115.429479,54.4201026 115.453479,44.4551026 C111.407479,49.0881026 113.603479,60.6331026 116.323479,64.6811026 C119.475479,69.3731026 126.174479,72.8321026 131.328479,72.8771026 C135.355479,72.9141026 139.053479,72.2541026 142.539479,70.9611026 C137.898479,76.9701026 134.035479,84.4191026 131.544479,93.6631026 C133.401479,90.8231026 135.544479,88.1781026 138.599479,85.8791026 C150.724479,76.7571026 164.537479,71.1581026 179.184479,68.6081026 C178.483479,69.9661026 177.808479,71.3691026 177.133479,72.8091026 C173.329479,80.9241026 166.890479,85.3621026 159.835479,90.0311026 C172.742479,95.7631026 185.933479,91.0271026 195.478479,82.1151026 C191.641479,87.0471026 186.945479,91.1231026 182.389479,94.4981026 C194.018479,100.563103 232.432479,83.9031026 222.917479,69.4001026 C225.185479,69.8971026 227.437479,70.4761026 229.668479,71.1411026 C242.006479,74.8211026 252.705479,82.4541026 261.980479,91.1971026 C263.695479,92.8141026 265.657479,94.7061026 267.445479,96.7111026 C265.439479,85.7021026 261.205479,77.0531026 255.771479,70.2571026 C256.933479,70.3411026 258.120479,70.3691026 259.342479,70.3241026 C264.500479,70.1391026 271.289479,66.4961026 274.557479,61.7161026 C277.385479,57.5921026 279.877479,45.9831026 275.946479,41.4601026" id="Fill-436" fill="#0E76AA"></path>
    </g>
</svg>