<?xml version="1.0" encoding="UTF-8"?>
<svg width="400px" height="400px" viewBox="0 0 400 400" version="1.1" xmlns="http://www.w3.org/2000/svg" xmlns:xlink="http://www.w3.org/1999/xlink">
    <!-- Generator: Sketch 51.3 (57544) - http://www.bohemiancoding.com/sketch -->
    <title>hairs/front/hair15</title>
    <desc>Created with Sketch.</desc>
    <defs></defs>
    <g id="hairs/front/hair15" stroke="none" stroke-width="1" fill="none" fill-rule="evenodd">
        <path d="M269,97.8369971 C267.203098,96.1685624 265.030214,94.8986542 262.969636,93.3266882 C254.548286,87.7030352 249.862343,87.378837 241.240794,86.1405579 C235.604317,85.3055498 229.705791,83.6292078 230.926512,77.9502039 C231.444098,74.7003144 232.611108,71.5105202 234.139451,68.5879919 C235.604317,66.1667847 237.32472,62.888429 239.559454,60.2300036 C252.243564,67.0903542 264.001553,78.6207407 269,97.8369971 Z M198.609784,50.4898239 C202.74396,50.1719515 219.007225,50.6210847 234.975889,57.9732677 C233.88375,60.35652 232.164975,62.6733512 230.485262,64.9712049 C228.354696,68.5895733 226.071133,72.5305585 221.845809,74.539006 C216.046569,77.4235794 208.728751,77.7367075 202.237768,77.8932715 C190.450481,78.3977556 179.058709,78.2585875 167.595321,80.7731006 C156.496521,83.2006336 146.025987,86.9866362 137.189591,93.6714453 C133.98479,96.1622365 130.892296,98.6751681 128,101.581882 C140.508326,47.8361429 198.609784,50.4898239 198.609784,50.4898239 Z" id="Combined-Shape" fill="#0E76AA"></path>
    </g>
</svg>