<?xml version="1.0" encoding="UTF-8"?>
<svg width="400px" height="400px" viewBox="0 0 400 400" version="1.1" xmlns="http://www.w3.org/2000/svg" xmlns:xlink="http://www.w3.org/1999/xlink">
    <!-- Generator: Sketch 51.3 (57544) - http://www.bohemiancoding.com/sketch -->
    <title>hairs/front/hair12</title>
    <desc>Created with Sketch.</desc>
    <defs></defs>
    <g id="hairs/front/hair12" stroke="none" stroke-width="1" fill="none" fill-rule="evenodd">
        <path d="M252.486444,64.116224 C251.431749,62.5504218 249.8574,61.5880346 248.681339,60.217103 C230.15154,44.4394234 200.9842,45.1881367 178.428785,49.8581931 C166.610055,52.5863812 155.085341,58.0051509 146.798213,67.3709046 C146.611889,67.9213285 146.07514,68.1520963 145.914457,68.8016649 C145.511041,68.5281623 144.991386,68.2649161 144.78455,67.9897042 L144.143528,69.1845685 C140.495688,70.7486613 136.883744,75.7486302 134.882048,79.1246776 C133.174366,81.8443188 131.464975,84.9212227 130.541904,87.7895809 C129.423962,90.8955445 127.711152,93.8818507 127.854741,97.463025 C127.039361,98.9074605 127.880382,101.987783 127.854741,103.839054 C128.582941,102.268123 128.86841,101.199754 129.659858,99.6151484 C129.659858,100.408306 127.936792,100.984371 128.106021,101.357018 C129.54191,101.357018 132.851291,96.820294 133.432484,95.9348294 C134.598289,94.1382594 135.536744,92.4613467 136.589729,91.028877 C138.273479,88.3126546 140.495688,85.9827546 142.302514,83.6118292 C143.186269,82.3861958 144.109341,81.4853467 144.991386,80.1656968 C145.312752,79.8152716 145.914457,79.6785203 146.112747,79.6785203 C145.837535,82.17765 144.109341,84.3331922 144.384552,86.9998423 C148.950336,81.4853467 149.931526,72.2597631 157.370796,69.7161891 C156.4614,71.5298531 155.977643,73.3400982 155.604995,75.1452152 C154.928077,77.8734033 153.169113,82.3639737 150.410156,84.1690906 C152.969114,83.9742201 155.063118,82.3708112 157.420369,81.338339 C160.36394,79.6785203 163.769047,78.2819478 166.211767,76.066577 C168.473291,74.26146 170.278408,72.0871146 172.085235,69.7537957 C173.008306,68.8426903 173.568986,67.9213285 174.131376,67.0358639 C175.697178,66.1145022 177.497167,65.6700605 179.309121,65.606813 C178.726219,66.7350111 178.427076,67.9213285 178.75186,68.8426903 C182.65269,67.2273157 186.430445,65.5743346 190.146661,63.8700717 C192.061179,62.7982835 196.488502,60.1179583 198.994469,60.8017147 C202.794445,62.1880309 200.100445,67.9213285 198.881649,70.6153288 C202.791027,69.239269 206.527755,67.9213285 210.196109,66.1145022 C212.149943,65.2290376 215.433683,62.5025588 217.601191,62.7076858 C222.659279,63.4239206 217.240509,70.3640484 215.548212,72.4409585 C222.659279,71.0084888 229.137871,67.7418425 236.172015,65.331601 C237.119018,65.2068155 238.801059,64.49229 240.072846,64.3076758 C249.012961,68.981151 256.156506,79.4836497 256.712058,89.4818781 C257.671027,86.7246303 257.900085,83.7605462 258.428287,80.9400509 C264.076115,85.2955794 267.069259,92.322886 273.005974,96.820294 C271.402565,85.09729 273.209392,78.8887816 253.313789,64.6136568" id="Fill-173" fill="#0E76AA"></path>
    </g>
</svg>