<?xml version="1.0" encoding="UTF-8"?>
<svg width="400px" height="400px" viewBox="0 0 400 400" version="1.1" xmlns="http://www.w3.org/2000/svg" xmlns:xlink="http://www.w3.org/1999/xlink">
    <!-- Generator: Sketch 51.3 (57544) - http://www.bohemiancoding.com/sketch -->
    <title>hairs/front/hair16</title>
    <desc>Created with Sketch.</desc>
    <defs></defs>
    <g id="hairs/front/hair16" stroke="none" stroke-width="1" fill="none" fill-rule="evenodd">
        <path d="M270.810696,103.306681 C268.068322,91.5349749 252.973163,88.579539 244.17949,84.7137449 C239.430778,82.841377 234.985518,79.7600405 234.121969,74.1962025 C233.447271,71.4683561 234.209131,68.7953895 234.995203,66.2870622 C235.392274,65.6139782 239.295193,58.5619305 239.569592,58.8879808 C252.969935,66.2386389 266.614009,78.1895112 270.810696,103.306681 Z M236.361063,57.7127471 C236.566055,57.7918385 236.69357,57.8790005 236.69357,57.9726189 C235.40551,60.3953984 233.899545,62.7519993 232.493655,65.0876169 C231.557471,66.6516897 230.590619,68.0769491 229.438144,69.5974409 C228.677898,70.988804 227.539951,72.5496486 226.842655,73.8490074 C224.40212,78.0989597 220.56538,80.6298845 216.246021,83.2705689 C208.654861,88.0660905 199.45766,90.7874804 190.694656,93.1053427 C191.309632,91.9028306 193.12712,90.5308369 194.04232,89.6237069 C194.984961,88.2468708 196.043817,86.8458231 196.691075,85.2171859 C197.443251,83.8484204 197.84355,82.8557426 196.303689,82.8557426 C194.972048,82.8557426 192.515372,84.7038988 191.253138,85.1962025 C184.751502,87.2477366 178.307974,88.0483353 171.953222,90.8423601 C166.407139,93.2796666 159.695668,96.0898326 155.39245,100.764296 C154.83074,97.632922 157.387491,93.0892016 158.791767,90.5308369 C160.576973,87.5398906 163.361313,85.8579877 165.648507,83.301237 C164.763975,84.3907614 161.650356,85.0041233 160.41879,85.6465392 C156.743461,87.4430439 153.284422,89.5898106 150.083642,91.8285815 C142.108323,97.355295 133.89573,104.617177 130.359214,114 C130.67558,113.554506 129.897579,112.237392 129.632865,111.636943 C129.266462,110.589385 129.266462,109.411085 129.18737,108.358685 C128.632116,103.479229 129.613495,98.6498115 130.87573,93.9414518 C131.852266,90.0853424 133.343704,85.9193239 135.209616,82.3569825 C141.745148,68.7968422 154.598308,58.0097434 169.399699,54.5942861 C169.654729,54.4506303 174.15164,53.4434255 174.471234,53.4724795 C171.890271,51.8615974 168.487727,52.6089305 165.997155,53.3126825 C163.248325,53.9470279 159.337336,55.0413946 156.81771,56.8540405 C159.950698,54.5281076 163.35647,52.207017 166.767085,50.4573215 C170.907278,48.3283101 175.250849,46.7997477 179.631544,45.7634889 C183.316558,44.7046325 187.235618,44.0686731 191.401636,44.0606026 C205.215192,43.5005063 218.901233,46.8578556 231.573612,52.6767231 C232.966589,53.4434255 234.966472,54.4780702 235.915569,55.8726614 C236.443383,56.6022393 236.606408,57.2785515 236.361063,57.7127471 Z" id="Combined-Shape" fill="#0E76AA"></path>
    </g>
</svg>