<?xml version="1.0" encoding="UTF-8"?>
<svg width="400px" height="400px" viewBox="0 0 400 400" version="1.1" xmlns="http://www.w3.org/2000/svg" xmlns:xlink="http://www.w3.org/1999/xlink">
    <!-- Generator: Sketch 51.3 (57544) - http://www.bohemiancoding.com/sketch -->
    <title>hairs/front/hair13</title>
    <desc>Created with Sketch.</desc>
    <defs></defs>
    <g id="hairs/front/hair13" stroke="none" stroke-width="1" fill="none" fill-rule="evenodd">
        <path d="M270.031522,102.116326 C270.031522,99.9240511 269.797488,97.7922751 269.448826,95.6716435 C269.760871,92.3060166 269.373999,89.3797998 268.784934,85.0875906 C267.955468,79.6650147 265.573738,73.9893003 262.63956,69.5665417 C259.76429,65.1835848 255.435463,61.4995447 250.536677,60.2593255 C248.880928,59.8215074 247.088262,59.3168225 245.405449,59.5094625 C245.088628,59.5094625 244.888028,59.5094625 244.563246,59.5906579 C243.30233,55.7267143 238.15359,51.1734063 235.724097,49.4778563 C229.475239,45.0710184 222.697815,43.1095934 215.065452,41.5605134 C205.022702,39.6977965 194.933781,39.322069 184.843268,41.428372 C182.323028,41.8837028 180.084584,42.6797356 177.698077,43.4550717 C172.644861,44.3689174 167.760403,45.6346096 162.98739,47.8014111 C153.296486,52.3786001 144.42072,58.7500471 137.856633,67.8009408 C135.224948,71.292341 133.397256,75.1562845 131.7431,79.284511 C130.13989,83.47642 128.484142,87.3626525 127.567112,91.7535698 C126.806104,95.2688509 125.963901,99.8762891 126.151765,103.908992 C126.040321,104.77826 125.973454,105.636383 126.010071,106.464257 C126.137437,109.097534 127.011481,111.485632 127.223225,114.098212 C127.310789,115.176041 127.223225,117.137466 127.61169,117.685136 C127.646715,117.406525 127.646715,117.129505 127.724726,116.699648 C127.939655,117.81091 128.063836,118.820279 128.063836,120 C129.229228,112.830928 132.529581,104.633382 137.180005,99.1184659 C139.886516,95.8419946 142.908257,92.995381 146.151295,90.2856852 C145.941142,90.6136507 145.726213,90.7043985 145.622729,91.0068909 C143.521202,93.3217545 141.580474,95.9613995 140.325926,98.8430385 C138.198927,103.679734 136.745371,108.726583 134.032491,113.334021 C134.241051,113.334021 134.374785,113.267154 134.422547,113.158894 C134.374785,113.334021 134.336575,113.598304 134.148711,113.773431 C135.333208,113.334021 136.579796,112.157484 137.740412,110.874279 C139.954975,109.129375 142.035805,106.945061 143.954244,104.964531 C145.726213,103.679734 147.649429,102.52071 149.518514,101.196112 C155.582692,97.2477886 161.126265,91.9637225 166.260677,86.8563756 C166.838597,86.2068128 167.593236,85.5715785 168.110658,84.735744 C168.199813,88.537597 165.21469,92.5320899 163.412472,95.6716435 C161.295024,99.4257345 158.343334,102.501606 155.402789,105.688921 C162.708779,100.312515 170.544926,97.0567407 178.904863,93.1482194 C183.192296,91.0992308 187.885706,89.2381059 191.913632,86.4169654 C195.180551,83.9062778 197.72308,80.2429345 200.826016,78.0092663 C201.238361,84.735744 194.715668,89.7029891 191.638205,94.8533218 C194.626512,95.9056772 199.144795,91.5274964 201.368911,90.0452832 C205.030662,87.4756892 208.72107,84.3313593 212.565909,82.2011754 C212.879546,86.0109887 210.07751,89.7205018 208.221162,92.7454267 C212.163116,92.8473189 216.413932,88.7366052 219.365622,86.5682117 C221.639092,85.001619 223.949179,83.4891566 226.06185,82.1008752 C226.77828,86.2800478 223.106976,89.5692556 221.777601,93.1848369 C227.306846,93.4427515 233.200673,87.157276 236.588589,83.4891566 C237.406911,82.6485459 237.929108,80.9689165 239.295101,80.9641403 C240.653133,80.9641403 242.61615,83.7136378 243.29437,84.6497725 C247.930465,90.6247952 248.341218,96.9500723 249.708803,104.026805 C253.388067,98.1807391 252.232227,92.3060166 252.975721,86.0109887 C254.755651,88.7350131 255.07088,92.3044245 256.339756,95.2688509 C257.594304,98.1950677 259.275526,101.266163 260.910577,104.082527 C263.631417,108.726583 267.686409,111.847031 272.36549,114.607673 C268.97439,112.746549 270.031522,105.362548 270.031522,102.116326" id="Fill-151" fill="#0E76AA"></path>
    </g>
</svg>