<?xml version="1.0" encoding="UTF-8"?>
<svg width="400px" height="400px" viewBox="0 0 400 400" version="1.1" xmlns="http://www.w3.org/2000/svg" xmlns:xlink="http://www.w3.org/1999/xlink">
    <!-- Generator: Sketch 51.3 (57544) - http://www.bohemiancoding.com/sketch -->
    <title>hairs/front/hair18</title>
    <desc>Created with Sketch.</desc>
    <defs></defs>
    <g id="hairs/front/hair18" stroke="none" stroke-width="1" fill="none" fill-rule="evenodd">
        <path d="M227.091854,60.4988363 C224.01228,62.0386235 222.123862,60.7501412 219.093677,61.2498457 C216.083829,62.0328129 205.165454,58.3143686 207.309947,57.4526724 C205.566792,52.8231426 200.308273,57.4279777 197.873667,57.8216403 C194.738892,58.2951975 189.737489,55.1110339 186.095747,55.1110339 C182.857836,55.1110339 179.95403,55.6426962 177.746034,57.8942718 C173.92126,61.9921393 174.076692,65.9432913 167.307439,68.1730774 C162.872561,69.4426755 159.688398,67.6893518 155.796803,68.1730774 C155.394425,74.3176998 153.068765,78.1337572 147.355574,81.987583 C153.34186,86.4253658 151.245716,95.8035412 146.587133,100.408376 C145.417766,101.647469 142.617097,102.69191 141.765856,104.098055 C140.648784,105.759863 141.133962,109.273774 140.051753,111.156381 C138.928871,113.564841 130.070737,123.869794 127.400804,118.07816 C126.269206,115.761216 129.142507,114.969533 129.302296,113.434104 C129.626232,111.661896 126.931605,110.200551 127.001331,107.562576 C127.159667,105.187527 128.561455,103.477782 130.226168,101.943806 C132.043408,100.175956 132.005639,100.530397 132.005639,98.4110109 C132.040502,95.9691409 130.836272,94.2695645 131.871997,91.8276945 C132.589596,89.8099923 134.000099,88.8788568 134.881845,87.3434276 C136.610474,83.986401 136.858874,80.1224068 138.912892,76.5997805 C141.909666,71.7538089 145.49185,66.6376481 150.488896,63.251569 C161.020459,55.8940011 170.700781,49.7944103 183.790425,46.8252358 C193.106137,44.790102 202.033997,44.8627335 211.587941,45.1489014 C215.25583,45.2825434 218.326688,45.9013635 221.840599,46.6843307 C223.214786,47.0256986 224.655795,46.9922882 225.900698,47.4353401 C227.687432,48.2183074 227.935832,49.7450209 229.471261,50.5061987 C231.947994,52.0401753 235.797462,50.6630826 238.656237,51.8048493 C242.658231,53.232784 242.884841,56.156927 244.42027,59.3236591 C245.954247,62.1969601 248.338012,63.2050849 250.730492,65.5089551 C252.305143,67.0196897 252.826637,67.9885935 254.88356,68.9240868 C256.699347,69.9264011 258.818733,70.4595161 259.768753,72.1619977 C260.357067,73.5260167 259.765847,75.0076987 260.079615,75.9068763 C260.304773,76.9672958 261.304182,78.4998198 261.710918,79.6691865 C263.041527,82.3565508 270.775704,87.376838 271.494756,90.446244 C271.824503,91.9816732 271.945071,95.0016897 271.815787,96.5865084 C271.545598,98.0754535 270.040674,99.2273887 270,100.408376 C269.604885,103.477782 272.377954,105.478053 271.163556,108.808932 C270.007263,111.192697 261.93317,111.898675 259.122332,109.352216 C257.867261,108.082617 257.321072,105.759863 257.553493,104.227339 C257.867261,103.161109 259.755679,101.157933 259.562479,100.408376 C259.321343,98.2846322 255.163917,97.1966128 254.383855,95.0176687 C253.42512,92.7341353 254.566887,90.1847707 255.564843,88.1263948 C253.278404,87.3434276 250.214809,86.922165 249.023653,84.8478103 C247.537613,82.2911825 250.011441,80.7208901 249.633757,78.8499035 C249.208137,76.5997805 247.167193,76.5997805 245.357216,75.5451716 C243.285767,74.2930051 241.962421,71.7523562 241.52518,69.5763174 C241.147496,73.7802269 229.837324,67.3116682 231.416332,65.0353979 C230.23825,63.565337 228.640357,62.3741808 228.174063,60.4988363 C227.661285,58.4564394 229.362314,59.4282484 227.091854,60.4988363 Z" id="Fill-129" fill="#0E76AA"></path>
    </g>
</svg>