<?xml version="1.0" encoding="UTF-8"?>
<svg width="400px" height="400px" viewBox="0 0 400 400" version="1.1" xmlns="http://www.w3.org/2000/svg" xmlns:xlink="http://www.w3.org/1999/xlink">
    <!-- Generator: Sketch 51.3 (57544) - http://www.bohemiancoding.com/sketch -->
    <title>hairs/front/hair4</title>
    <desc>Created with Sketch.</desc>
    <defs></defs>
    <g id="hairs/front/hair4" stroke="none" stroke-width="1" fill="none" fill-rule="evenodd">
        <path d="M223.1832,83.1216674 C230.3022,87.0556674 238.2082,88.6156674 246.2472,89.3076674 C248.6292,89.5106674 251.0192,89.6096674 253.4122,89.6096674 C255.5292,89.6116674 257.6442,89.5766674 259.7602,89.5276674 C260.7802,89.5046674 266.0422,88.9066674 266.4212,90.2056674 C258.5192,63.0686674 236.9372,51.8776674 220.0372,47.4636674 C220.1622,46.5846674 220.2322,45.6896674 220.2322,44.7816674 C220.2322,33.2736674 210.0272,23.9476674 197.4382,23.9476674 C184.8492,23.9476674 174.6442,33.2736674 174.6442,44.7816674 C174.6442,45.9886674 174.7632,47.1706674 174.9782,48.3226674 C159.3922,53.0626674 141.1382,64.7486674 132.6922,90.7856674 C132.1502,92.4616674 151.3352,91.3986674 152.9272,91.2666674 C162.6242,90.4636674 172.0782,87.4676674 180.5332,82.6626674 C187.1152,78.9226674 196.3782,73.0436674 201.3162,67.2896674 C206.2262,72.1176674 212.3272,76.5396674 217.9602,80.5396674" id="Fill-451" fill="#0E76AA"></path>
    </g>
</svg>