<?xml version="1.0" encoding="UTF-8"?>
<svg width="400px" height="400px" viewBox="0 0 400 400" version="1.1" xmlns="http://www.w3.org/2000/svg" xmlns:xlink="http://www.w3.org/1999/xlink">
    <!-- Generator: Sketch 51.3 (57544) - http://www.bohemiancoding.com/sketch -->
    <title>hairs/front/hair14</title>
    <desc>Created with Sketch.</desc>
    <defs></defs>
    <g id="hairs/front/hair14" stroke="none" stroke-width="1" fill="none" fill-rule="evenodd">
        <path d="M281,82.8653407 C276.872388,85.2856153 271.578714,82.718423 269.127509,78.7562865 C268.827488,72.5841994 267.353672,66.3842754 264.197262,61.2344258 C262.039893,57.8089252 258.506137,54.6664344 254.816185,52.9065158 C250.996327,51.0352491 245.428922,49.261412 240.92551,49.2567725 C240.195561,44.9497662 238.471212,40.9118511 235.053444,37.7786392 C228.813311,32.0674096 220.173007,31.374577 212.361629,31.8663644 C205.95602,32.2344318 198.328675,34.5541839 192.430319,30.7838135 C189.21205,28.5692235 186.898484,23.4889664 189.875499,20.0186173 C188.42952,19.703131 186.075745,23.4858734 185.359715,24.6488425 C184.006526,26.7567239 183.077079,29.2203006 183.095637,31.7441908 C183.108009,33.2999712 183.728156,36.1532663 184.977729,37.7879183 C180.155738,34.727392 174.644007,33.6633991 168.955975,33.1174841 C164.546899,32.7617887 160.461042,31.6544938 156.197338,32.478779 C152.326445,33.2798667 148.887026,34.3021041 145.458433,36.2197658 C141.667958,38.585913 138.21462,41.0556757 135.053571,44.3095146 C132.259043,46.9169159 131.44249,49.2258425 130.851727,52.9467248 C130.175906,57.7285071 131.44249,66.3842754 126.917427,69.6489398 C126.298827,70.0432977 125.604448,70.1840293 124.911615,70.4623995 C127.865433,72.2547946 132.676599,67.8333472 134.458168,65.8631044 C136.346446,63.6021194 137.49395,60.7828474 138.794558,58.2141086 C139.829167,56.1742732 140.5885,54.4236337 142.67473,53.2807691 C144.378975,52.2554387 147.516826,51.2749568 149.114362,53.0565264 C149.838124,53.8313236 149.728323,53.7230685 149.298395,54.5411678 C143.089192,57.8615062 140.05341,64.7496234 135.616498,69.9458681 C134.710248,70.7423163 133.728219,71.524846 132.679692,72.3058292 C132.675052,72.4140843 132.487925,72.5192464 132.283787,72.5192464 C127.35818,75.0462296 123.128499,75.1482987 117.879673,75.1049967 C117.827092,76.9886354 120.981955,79.0578542 123.688332,80.5270306 C120.341703,84.353075 117.712651,88.8642195 117.152818,94.6574137 C116.730623,98.6690383 117.154364,102.689942 118.785923,106.284011 C119.604022,108.045476 120.518005,109.656931 121.639218,111.12456 C122.618154,112.547342 124.023923,113.543289 124.913162,114.953698 C125.322984,115.000093 125.022963,114.633572 125.319891,114.624293 C126.541628,116.613094 129.399562,117.457484 130.486753,119.028729 C128.590742,116.408956 128.723741,112.949432 128.991286,109.78993 C129.381004,104.967938 130.913587,100.033053 133.749871,96.1791711 C138.308957,89.8122249 144.021733,85.0799306 150.742828,81.5152449 C149.474697,82.2915886 149.414383,87.0424409 149.043223,88.4002691 C148.552982,90.8607528 147.640546,93.1959699 146.454379,95.3997344 C144.119162,99.7624148 140.426117,103.577634 135.307197,104.310675 C135.526801,104.262734 139.612657,107.094378 140.426117,107.264493 C142.48915,108.047023 144.937262,108.473857 147.253921,108.473857 C153.548181,108.469218 159.20683,104.862776 164.485039,101.724925 C170.966426,97.8509391 176.993142,92.9284252 182.670349,87.7847616 C186.607741,84.353075 192.45197,79.328492 198.044119,79.4506656 C198.435384,79.4661306 192.283401,92.131977 191.510151,93.2021559 C188.573345,97.0343864 184.544709,100.693409 179.642299,101.508415 C181.232103,101.149627 183.728156,102.393014 185.362808,102.640454 C187.346969,102.753348 189.221329,102.750255 191.123525,102.417758 C205.39928,100.693409 216.020651,89.6761328 227.531261,81.9838349 C229.300459,80.9028304 231.017075,79.871314 233.049178,79.4506656 C235.201908,79.0578542 235.809683,80.2672183 237.263394,81.9003238 C242.659138,88.0894223 246.853249,98.4138656 239.150126,104.422023 C241.259554,103.755481 243.642713,103.566808 245.555735,102.328061 C247.448652,101.378509 248.961131,99.4855911 250.337517,98.0055892 C252.787175,95.4646874 254.121806,92.9500762 254.811546,90.0704906 C254.950731,90.8298228 255.167241,91.5412134 255.23838,92.22786 C256.446197,98.6690383 257.958676,104.425116 260.957342,110.10387 C261.127457,110.498227 261.442943,111.053421 261.87751,111.740068 C262.981712,114.066006 264.616364,115.825925 266.680944,116.893011 C268.931103,118.445698 271.212193,119.092136 273.013867,116.814139 C272.225151,117.851842 268.700674,115.400637 268.307863,114.777397 C267.09386,113.589684 266.676304,112.081845 266.433503,110.498227 C265.282906,102.665198 267.502136,94.9744465 268.691395,87.2295676 C273.213366,88.0476668 278.106496,86.8584072 281,82.8653407" id="Fill-169" fill="#0E76AA"></path>
    </g>
</svg>