<?xml version="1.0" encoding="UTF-8"?>
<svg width="400px" height="400px" viewBox="0 0 400 400" version="1.1" xmlns="http://www.w3.org/2000/svg" xmlns:xlink="http://www.w3.org/1999/xlink">
    <!-- Generator: Sketch 51.3 (57544) - http://www.bohemiancoding.com/sketch -->
    <title>hairs/front/hair8</title>
    <desc>Created with Sketch.</desc>
    <defs></defs>
    <g id="hairs/front/hair8" stroke="none" stroke-width="1" fill="none" fill-rule="evenodd">
        <path d="M237.737907,62.0564084 C239.976907,63.1404084 232.013907,72.7684084 231.243907,73.6994084 C226.909907,78.9294084 221.528907,83.1064084 215.559907,86.3034084 C209.463907,89.5694084 202.646907,92.6224084 195.597907,92.5484084 C198.835907,91.2134084 202.378907,87.0464084 204.464907,84.3964084 C207.753907,80.2194084 209.176907,74.4834084 208.415907,69.2204084 C208.492907,69.7514084 206.703907,72.0404084 206.374907,72.6214084 C200.784907,82.4564084 189.697907,86.9864084 179.549907,90.4844084 C172.812907,92.8074084 164.824907,95.6324084 157.581907,94.5274084 C157.791907,94.5604084 161.720907,90.4424084 162.353907,89.9044084 C164.180907,88.3464084 165.867907,86.6354084 167.018907,84.5024084 C167.710907,83.2224084 168.247907,81.8504084 168.675907,80.4594084 C169.018907,79.3314084 169.034907,77.7774084 169.014907,76.6244084 C169.018907,76.8174084 167.469907,78.6684084 167.255907,79.0054084 C164.696907,83.0274084 160.754907,85.8204084 156.948907,88.5484084 C150.021907,93.5144084 143.030907,99.1624084 138.434907,106.447408 C130.998907,118.238408 132.421907,134.303408 138.390907,146.406408 C140.202907,150.077408 142.473907,154.076408 145.142907,157.196408 C144.980907,157.006408 141.710907,157.368408 141.132907,157.323408 C133.284907,156.713408 124.637907,153.565408 118.647907,148.361408 C115.240907,145.400408 112.514907,141.427408 110.512907,137.454408 C109.399907,135.245408 108.506907,132.904408 107.788907,130.544408 C106.440907,126.120408 106.593907,121.765408 106.466907,117.192408 C106.363907,113.567408 106.430907,109.936408 106.774907,106.326408 C107.460907,99.1114084 109.279907,92.0564084 112.067907,85.3754084 C117.327907,72.7824084 125.692907,61.4944084 136.665907,53.3674084 C145.957907,46.4844084 156.171907,40.8694084 167.407907,37.9714084 C178.503907,35.1094084 190.205907,34.1194084 201.626907,34.9904084 C209.977907,35.6264084 218.897907,36.8294084 225.729907,42.0644084 C228.647907,44.2994084 231.247907,47.6334084 232.611907,51.0584084 C233.003907,52.0414084 233.214907,52.9594084 233.919907,53.7284084 C235.425907,55.3734084 239.969907,54.7964084 242.042907,55.1654084 C245.100907,55.7084084 248.112907,56.5854084 250.981907,57.7854084 C269.524907,65.5434084 279.374907,86.2684084 282.867907,105.003408 C284.067907,111.422408 284.754907,118.288408 284.576907,124.824408 C284.364907,132.564408 282.676907,140.900408 277.695907,147.044408 C271.241907,155.005408 261.454907,158.919408 251.200907,158.514408 C254.172907,158.617408 256.176907,155.714408 257.664907,153.606408 C260.390907,149.742408 262.389907,145.320408 263.317907,140.710408 C264.370907,135.472408 263.947907,130.114408 262.696907,124.947408 C262.007907,122.090408 261.126907,119.183408 259.997907,116.457408 C256.674907,108.418408 250.270907,103.060408 245.613907,95.9274084 C239.505907,86.5704084 234.991907,73.4094084 237.737907,62.2134084" id="Fill-444" fill="#0E76AA"></path>
    </g>
</svg>