<?xml version="1.0" encoding="UTF-8"?>
<svg width="400px" height="400px" viewBox="0 0 400 400" version="1.1" xmlns="http://www.w3.org/2000/svg" xmlns:xlink="http://www.w3.org/1999/xlink">
    <!-- Generator: Sketch 51.3 (57544) - http://www.bohemiancoding.com/sketch -->
    <title>hairs/front/hair9</title>
    <desc>Created with Sketch.</desc>
    <defs></defs>
    <g id="hairs/front/hair9" stroke="none" stroke-width="1" fill="none" fill-rule="evenodd">
        <path d="M243.4571,59.6894643 C242.2161,56.1414643 239.7401,52.9564643 236.6641,50.8604643 C236.0471,50.4374643 236.4971,47.3354643 236.4321,46.6524643 C235.5761,37.5854643 225.6471,33.0674643 217.8771,31.3544643 C212.9741,30.2734643 208.0931,29.5954643 203.0791,29.3104643 C201.8951,29.2434643 200.7091,29.1474643 199.5221,29.1794643 C198.5681,29.2054643 196.8731,29.8684643 196.0241,29.6814643 C200.5261,30.6714643 205.0441,34.0784643 208.9951,37.1984643 C207.0161,35.6354643 203.2081,34.9504643 200.7721,34.6464643 C187.4741,32.9884643 173.6661,36.7574643 162.9181,44.7344643 C160.1021,46.8244643 157.3501,49.2904643 155.0511,51.9454643 C150.9581,56.6714643 148.5941,60.9654643 146.4711,67.2104643 C145.9881,68.6294643 146.3331,73.9534643 145.1841,75.0524643 C147.5221,72.3144643 149.8101,67.3024643 157.4941,66.5654643 C157.0461,67.3904643 156.0721,67.9774643 155.3731,68.6114643 C148.6441,74.7104643 144.1131,84.1944643 144.4581,93.3714643 C144.5491,95.7854643 144.8471,98.6484643 145.6841,100.927464 C145.5421,100.540464 148.7321,97.7744643 149.1201,97.4104643 C150.3451,96.2574643 151.6391,95.1804643 153.0141,94.2114643 C161.9311,87.9394643 173.1001,86.8904643 183.5931,85.4994643 C188.2241,84.8844643 193.0201,83.9164643 197.3901,82.2214643 C200.3641,81.0684643 203.1061,79.3924643 205.6001,77.4104643 C206.8481,76.4164643 208.0331,75.3414643 209.1721,74.2204643 C210.1921,73.2144643 211.3391,71.5064643 212.4761,70.8584643 C211.1291,75.2104643 209.4311,79.7574643 205.7701,82.6914643 C202.2721,85.4954643 198.1451,87.2514643 194.3151,89.5254643 C194.5131,89.4084643 196.9971,90.7804643 197.4101,90.8824643 C207.5511,93.4004643 218.6631,91.1324643 227.5191,85.7624643 C229.7641,84.4014643 232.0401,82.8084643 233.9781,81.0304643 C237.3991,77.8914643 240.6131,74.2844643 242.6131,70.0534643 C243.9571,67.2124643 244.5191,62.7254643 243.4571,59.6894643" id="Fill-446" fill="#0E76AA"></path>
    </g>
</svg>