<?xml version="1.0" encoding="UTF-8"?>
<svg width="400px" height="400px" viewBox="0 0 400 400" version="1.1" xmlns="http://www.w3.org/2000/svg" xmlns:xlink="http://www.w3.org/1999/xlink">
    <!-- Generator: Sketch 51.3 (57544) - http://www.bohemiancoding.com/sketch -->
    <title>hairs/back/hair6</title>
    <desc>Created with Sketch.</desc>
    <defs></defs>
    <g id="hairs/back/hair6" stroke="none" stroke-width="1" fill="none" fill-rule="evenodd">
        <path d="M244.9701,62.6440246 C233.2321,39.7630246 202.2111,22.3780246 176.8771,31.8690246 C170.1861,34.3750246 161.8981,39.1720246 157.0921,44.5500246 C153.3861,48.6970246 150.6361,53.5790246 147.0591,57.8250246 C143.4061,62.1610246 138.8291,65.5110246 133.8821,68.2380246 C127.8041,71.5880246 120.9741,74.5880246 116.6291,80.2280246 C109.7431,89.1670246 115.9751,99.7240246 118.6961,108.932025 C122.8061,122.841025 112.7491,129.922025 106.8021,140.958025 C101.2561,151.249025 109.7961,160.262025 115.1441,168.386025 C120.0421,175.831025 119.3121,182.522025 109.7131,184.322025 C107.8511,184.669025 105.9641,184.897025 104.0841,185.131025 C109.4431,196.940025 123.7241,202.626025 136.2221,198.911025 C142.7971,196.955025 147.2281,191.398025 153.5151,189.010025 C160.2071,186.468025 166.7741,189.952025 172.9851,192.268025 C186.9641,197.477025 204.5751,197.014025 219.0851,194.179025 C226.8631,192.660025 234.6711,189.128025 242.7121,189.512025 C249.4731,189.834025 254.4081,193.686025 259.8861,197.159025 C265.4591,200.692025 272.1311,203.260025 278.8201,203.195025 C287.1421,203.112025 290.7591,196.891025 293.9151,190.066025 C287.6971,190.219025 279.6461,188.242025 276.8531,181.998025 C274.4471,176.623025 278.2981,171.310025 279.9971,166.342025 C281.8201,161.013025 281.7281,155.826025 279.1441,150.746025 C274.6791,141.969025 277.7751,137.264025 281.9741,129.359025 C287.3231,119.291025 278.0361,111.877025 275.1571,102.873025 C270.3751,87.9120246 273.2821,65.7550246 253.1901,61.8140246 C249.2041,61.0330246 242.0151,60.3690246 238.2401,62.2820246" id="Fill-300" fill="#0E76AA"></path>
    </g>
</svg>