<?xml version="1.0" encoding="UTF-8"?>
<svg width="400px" height="400px" viewBox="0 0 400 400" version="1.1" xmlns="http://www.w3.org/2000/svg" xmlns:xlink="http://www.w3.org/1999/xlink">
    <!-- Generator: Sketch 51.3 (57544) - http://www.bohemiancoding.com/sketch -->
    <title>hairs/back/hair5</title>
    <desc>Created with Sketch.</desc>
    <defs></defs>
    <g id="hairs/back/hair5" stroke="none" stroke-width="1" fill="none" fill-rule="evenodd">
        <path d="M280.532381,115.7559 C280.274381,114.4099 280.005381,113.0649 279.727381,111.7209 C277.774381,102.2619 275.475381,92.7599 271.482381,83.9239 C267.553381,75.2289 261.294381,66.8379 252.019381,63.5139 C251.630381,63.3729 244.147381,60.9609 244.147381,62.0469 L246.257381,65.5799 C246.146381,63.8669 244.386381,63.0779 244.147381,62.0469 C241.266381,49.6719 229.918381,42.2029 219.066381,38.2249 C205.017381,33.0719 188.887381,31.6559 174.528381,36.3299 C151.192381,43.9259 135.813381,64.4769 127.481381,86.6169 C123.785381,96.4379 121.226381,106.6519 119.507381,116.9979 C116.999381,132.0839 116.159381,147.3869 114.198381,162.5449 C113.714381,166.2889 113.023381,170.0139 111.880381,173.6149 C110.562381,177.7639 108.739381,181.7379 105.951381,185.1099 C104.021381,187.4419 101.600381,189.2459 98.7973814,190.3689 C97.2823814,190.9789 95.6923814,191.3789 94.0913814,191.6839 C93.2593814,191.8419 89.5953814,192.8869 88.9503814,192.4009 C88.9503814,192.4009 112.423381,204.9279 130.053381,191.5799 C130.485381,191.5199 130.912381,191.4569 131.338381,191.3889 C151.123381,188.2639 170.131381,181.6169 190.236381,180.4259 C200.216381,179.8339 210.171381,180.4689 220.089381,181.6349 C229.214381,182.7109 238.363381,184.2929 247.567381,184.2809 C252.169381,184.2759 257.365381,183.1819 261.748381,181.7869 C277.079381,176.9009 282.005381,161.0349 283.031381,145.9179 C283.725381,135.7049 282.444381,125.7189 280.532381,115.7559" id="Fill-302" fill="#0E76AA"></path>
    </g>
</svg>