<?xml version="1.0" encoding="UTF-8"?>
<svg width="400px" height="400px" viewBox="0 0 400 400" version="1.1" xmlns="http://www.w3.org/2000/svg" xmlns:xlink="http://www.w3.org/1999/xlink">
    <!-- Generator: Sketch 51.3 (57544) - http://www.bohemiancoding.com/sketch -->
    <title>hairs/back/hair12</title>
    <desc>Created with Sketch.</desc>
    <defs></defs>
    <g id="hairs/back/hair12" stroke="none" stroke-width="1" fill="none" fill-rule="evenodd">
        <path d="M268.966957,116.705591 C269.888319,113.093648 270.428487,109.562046 270.749852,106.119332 C270.929338,106.474886 271.124209,106.789414 271.248994,106.792832 C272.240441,109.722729 270.428487,113.791079 268.966957,116.705591 M129.514834,89.6117427 C130.236197,88.7279875 130.865253,87.8066258 131.578069,86.9211612 C131.326788,88.6527743 131.32166,89.9331082 131.251575,91.4185691 C130.398589,90.6972061 129.990045,90.2356705 129.514834,89.6117427 M273.448981,91.7074562 C273.946414,87.4408161 273.561801,83.1365693 271.985742,78.497282 C272.240441,79.6972745 269.927635,83.3092178 269.450715,84.3485276 C269.264391,83.7177623 268.997726,83.0938346 268.731061,82.3878561 C268.749865,82.1844385 268.778924,81.902389 268.780634,81.604955 C268.811403,79.2100981 268.618242,76.6357551 268.531063,74.2785048 C267.75329,70.6648521 265.855866,68.6682833 263.84904,65.9520609 C262.243922,64.2683107 259.401205,58.8871476 256.828571,58.810225 C258.04053,60.7127773 257.773865,64.3247206 256.838828,67.0529088 C256.367036,66.131547 255.891825,65.0495024 255.023454,63.8785695 C252.968766,60.191413 250.536303,54.6376014 246.920941,52.2923169 C246.919231,54.0017079 246.92265,56.1110965 245.794452,57.100834 C244.074805,53.717949 241.091917,51.6820643 238.189371,49.4410526 C235.16204,47.0239736 232.408211,44.1265557 229.828739,40.8445249 C230.644119,42.4530619 230.184293,44.4564682 229.74327,46.1333808 C229.74327,47.1094431 228.994557,49.8752379 227.936443,50.2171161 C227.050979,50.7965997 227.324481,49.8752379 226.432179,49.8547252 C224.963812,49.2000284 222.731348,47.1914939 221.661269,46.2154316 C220.741616,44.9299695 220.709138,42.6513512 219.825383,41.7658867 C217.967275,39.2872696 212.599787,44.7539023 209.486986,42.435968 C208.018619,40.9146099 208.987843,37.6359978 208.004944,35.5214811 C203.179333,37.2325815 199.117819,41.7658867 194.394772,42.6513512 C193.941783,40.7265769 196.104163,38.7573584 196.068266,36.3539545 C190.490523,37.1812998 184.711071,43.572713 179.165807,42.7368208 C179.169226,42.6513512 179.40854,42.1624654 179.707684,41.7658867 C179.165807,42.6513512 175.553863,42.6479325 174.670108,42.6513512 C172.377815,42.9145975 170.135094,43.572713 168.213738,44.4410837 C162.909498,46.1897908 158.24457,48.8735347 153.878785,52.2547103 C153.878785,52.3897522 153.878785,52.5282128 153.841178,52.603426 C153.482206,49.8752379 153.058277,47.2957668 153.33007,44.9675761 C152.99503,49.8752379 147.919847,53.4888906 144.301067,56.2153694 C137.354101,61.6341391 130.398589,67.9383733 129.514834,77.2972895 C129.126802,80.5776109 128.109714,84.1673322 127.986638,87.4049189 C126.784936,85.1177536 126.000326,82.8374259 126.176393,80.4938508 C122.461886,87.8066258 122.36616,95.9518742 126.15588,103.180889 C127.149037,104.989425 128.309713,106.852661 128.957572,108.956921 C129.935344,111.435539 128.591763,113.895352 127.702879,116.028672 C129.514834,114.898765 130.398589,114.898765 131.605419,113.640653 C132.991735,112.331259 133.660107,110.404776 134.767793,109.146664 C138.598538,103.869774 144.058333,99.2527084 148.61386,94.150176 C159.8702,82.3878561 167.986389,69.0306742 184.99483,66.131547 C209.466473,61.887129 227.050979,78.2049761 245.117533,92.3467684 C251.932875,97.7587006 258.050786,102.206536 262.749902,109.479995 C264.054167,112.144936 266.65757,118.508999 269.134478,119.433779 C270.428487,119.679932 271.255832,110.811611 271.255832,109.820164 C271.500275,103.524477 273.062658,97.7587006 273.448981,91.7074562" id="Fill-3" fill="#0E76AA"></path>
    </g>
</svg>