<?xml version="1.0" encoding="UTF-8"?>
<svg width="400px" height="400px" viewBox="0 0 400 400" version="1.1" xmlns="http://www.w3.org/2000/svg" xmlns:xlink="http://www.w3.org/1999/xlink">
    <!-- Generator: Sketch 51.3 (57544) - http://www.bohemiancoding.com/sketch -->
    <title>hairs/back/hair7</title>
    <desc>Created with Sketch.</desc>
    <defs></defs>
    <g id="hairs/back/hair7" stroke="none" stroke-width="1" fill="none" fill-rule="evenodd">
        <path d="M296.948589,137.288102 C290.968589,132.465102 281.611589,131.770102 273.815589,131.565102 C277.856589,131.672102 283.022589,128.990102 285.038589,125.514102 C289.184589,118.357102 277.618589,111.877102 271.745589,112.391102 C268.517589,112.673102 265.544589,113.683102 262.443589,114.523102 C264.020589,114.096102 266.542589,110.250102 267.579589,109.045102 C269.212589,107.148102 270.901589,105.251102 272.049589,103.069102 C283.272589,81.739102 274.237589,58.340102 256.684589,50.461102 C250.964589,47.892102 241.278589,45.825102 235.303589,48.043102 C234.083589,48.496102 232.923589,49.043102 231.817589,49.658102 C233.005589,48.997102 228.750589,41.111102 228.151589,40.047102 C221.725589,28.644102 206.714589,22.965102 193.357589,25.298102 C188.683589,26.114102 184.400589,27.909102 180.649589,30.606102 C177.881589,32.597102 175.985589,35.489102 173.145589,37.396102 C171.124589,38.754102 167.927589,39.415102 165.618589,40.182102 C163.216589,40.977102 160.778589,41.651102 158.314589,42.231102 C149.093589,44.401102 139.858589,47.007102 132.665589,53.478102 C126.466589,59.056102 121.057589,66.486102 118.615589,74.517102 C117.233589,79.059102 116.581589,84.233102 116.759589,88.984102 C117.085589,97.724102 119.019589,106.235102 123.772589,113.664102 C125.805589,116.840102 128.300589,120.096102 131.070589,122.670102 C126.809589,118.711102 119.995589,118.340102 114.529589,118.747102 C110.530589,119.045102 106.014589,119.594102 102.908589,122.395102 C99.3895894,125.569102 100.542589,130.552102 104.230589,133.229102 C105.395589,134.075102 106.673589,134.753102 107.921589,135.468102 C109.272589,136.243102 110.952589,137.782102 112.415589,138.208102 C103.103589,135.498102 90.2475894,145.264102 90.4765894,155.013102 C90.7355894,165.990102 105.622589,170.528102 113.934589,165.837102 C115.338589,165.045102 116.628589,164.064102 117.867589,163.039102 C118.872589,162.208102 121.321589,160.699102 121.814589,159.503102 C120.479589,162.742102 120.372589,166.767102 122.114589,169.877102 C124.622589,174.351102 130.298589,173.017102 134.274589,171.367102 C138.384589,169.663102 142.753589,167.104102 146.065589,164.330102 C147.167589,163.402102 148.596589,162.550102 148.512589,161.024102 C150.246589,161.784102 151.643589,163.450102 153.264589,164.442102 C156.761589,166.575102 161.467589,167.005102 165.594589,167.158102 C184.489589,167.864102 202.364589,158.252102 221.190589,158.491102 C230.800589,158.612102 240.870589,155.831102 250.370589,156.629102 C253.339589,156.877102 256.697589,159.593102 259.745589,158.674102 C260.070589,158.576102 261.739589,164.475102 262.009589,165.012102 C263.079589,167.137102 264.814589,168.719102 267.118589,169.391102 C270.729589,170.443102 275.829589,172.308102 278.270589,168.180102 C279.347589,166.359102 280.638589,162.109102 279.547589,160.143102 C282.566589,160.426102 285.633589,162.635102 288.684589,163.307102 C291.460589,163.918102 294.422589,163.935102 296.985589,162.566102 C305.970589,157.768102 303.929589,142.919102 296.948589,137.288102" id="Fill-286" fill="#0E76AA"></path>
    </g>
</svg>