<?xml version="1.0" encoding="UTF-8"?>
<svg width="400px" height="400px" viewBox="0 0 400 400" version="1.1" xmlns="http://www.w3.org/2000/svg" xmlns:xlink="http://www.w3.org/1999/xlink">
    <!-- Generator: Sketch 51.3 (57544) - http://www.bohemiancoding.com/sketch -->
    <title>hairs/back/hair18</title>
    <desc>Created with Sketch.</desc>
    <defs></defs>
    <g id="hairs/back/hair18" stroke="none" stroke-width="1" fill="none" fill-rule="evenodd">
        <path d="M281.444206,58.1476272 C281.012538,55.9461209 279.060828,51.6747562 275.581024,50 C272.10122,48.3252438 270.132677,51.931591 268.249965,46.4198759 C266.367254,40.9081609 267.678354,42.152212 267.867041,41.2739834 C268.219442,39.8088816 266.900018,38.923716 267.09703,37.6889237 C267.13449,36.8759033 268.205568,36.3445264 268.249965,35.4108015 C268.35957,33.2186984 266.403327,31.0127213 264.340252,30.554877 C259.328938,29.5462321 257.183779,29.4468507 255,33 C250.588046,29.4634996 251.846652,34.0664041 249.110686,28.0506074 C253.718264,28.0506074 249.904197,24.1187439 249.110686,22 C248.325525,19.9035512 241.131707,17.6629767 239,16.8930804 C237.477572,16.3432336 233.276599,20.0327824 231.598835,20.0327824 C225.19767,20.0327824 231.263087,14.0555224 228,13.1456941 C224.512013,12.1731584 223.791003,11.3268035 219,11.3268035 C214.208997,11.3268035 211.755829,7.66126097 211,7.61687724 C209.530736,7.52669579 206.436675,6.24208557 204,7.61687724 C201.563325,8.99166891 202.527109,14.168213 201.200748,13.1456941 C199.999253,12.0232818 197.905656,12.1176255 196.76937,11.3268035 C195.535965,10.4888097 195.264033,8.76426282 193.861365,7.61687724 C189.764352,4.61314111 180.807252,5.9214659 178.441723,10.4888097 C177.60149,12.1822509 175.144449,18.4490811 172,20.0327824 C168.083105,22.0055259 163.356266,19.1341307 162.345028,19.28497 C159.034674,18.5232836 155.183233,18.7313946 151.83542,20.0327824 C149.342249,20.7694955 146.692302,21.8530604 145.062099,23.6830502 C142.91578,24.4308626 140.682055,26.9046092 139.756654,28.0506074 C137.808735,30.2829452 135.278105,33.9665108 137.106707,36.9424988 C138.560709,39.3982092 138.127839,45.8163539 137.271808,46.4198759 C134.170954,47.8863651 129,41.8523728 125,50 C121,58.1476272 118,61.2066308 118,64.8404785 C118,68.1203087 111.674166,69.3795709 111,70.337385 C109.201517,72.892561 110.270345,85.2008653 111,88.357027 C111.729655,91.5131887 117.196029,89.8249036 116.337224,93.4238374 C116.031236,94.7297612 115.154783,98.7899129 116.337224,108 C116.816633,111.734135 120.248098,113.781337 121,118 C121.349992,119.963686 117.710459,122.988951 118,125 C118.368895,127.562214 122.171576,132.634448 122.758144,135 C123.383925,137.523693 126.05115,142.222842 126.401475,144 C127.267204,148.391752 128.652119,151.978053 129.714603,152 C133.96978,152.439808 156.863382,83.7882958 154.370212,81.3506217 C157.211622,78.6299166 162.851431,78.5952314 166.713972,77.6906421 C170.719416,76.7305564 174.035319,74.9921355 177.709173,73.6172152 C183.003518,71.8260727 189.199677,78.4856263 194.697971,75.491602 C195.792635,74.9754866 195.961899,73.7171085 196.90811,73.0969375 C199.863287,71.3002455 205.213129,70.9089967 208.584528,70.337385 C216.208329,69.0026995 223.900113,69.1580891 231.598835,70.337385 C236.643447,70.9908537 244.411538,72.0341838 247.344517,76.2061166 C248.077068,77.206437 248.260205,78.5258611 249.110686,79.3902156 C250.432885,80.8553174 250.87963,80.138028 252.37248,80.6860538 C255.134807,81.6045172 256.873228,82.5271429 256.899589,85.725116 C257.056366,90.4020649 258.542279,88.0795456 262.786357,89.0063335 C267.493828,90.3992901 265.002046,94.0495579 265.669388,96.9825363 C266.879207,96.8687689 265.919122,141.413127 267.09703,142 C268.249965,135 271.915495,135 275.581024,129 C277.689258,125.549092 275.288757,117.302247 275.581024,116 C276.477846,112.004051 274.683292,106.368988 275.581024,106 C279.962455,104.42668 279.89031,92.4360036 279.263202,88.357027 C279.15012,87.3644166 282.389948,81.0174166 283,73.6172152 C283.241052,70.6931452 279.656732,67.5455325 279.263202,64.8404785 C278.783133,61.5405741 281.875874,60.3491335 281.444206,58.1476272 Z" id="Fill-5" fill="#0E76AA"></path>
    </g>
</svg>