<?xml version="1.0" encoding="UTF-8"?>
<svg width="400px" height="400px" viewBox="0 0 400 400" version="1.1" xmlns="http://www.w3.org/2000/svg" xmlns:xlink="http://www.w3.org/1999/xlink">
    <!-- Generator: Sketch 51.3 (57544) - http://www.bohemiancoding.com/sketch -->
    <title>hairs/back/hair10</title>
    <desc>Created with Sketch.</desc>
    <defs></defs>
    <g id="hairs/back/hair10" stroke="none" stroke-width="1" fill="none" fill-rule="evenodd">
        <path d="M253.1348,65.28461 C253.9428,53.06961 244.9038,42.52361 232.9478,41.73261 C230.9738,41.60161 229.0458,41.75261 227.1978,42.13661 C227.0178,42.13861 226.8378,42.12461 226.6608,42.13161 C224.4408,33.08961 217.0738,26.63861 208.4158,26.86961 C205.9998,26.93661 203.7418,27.54261 201.6608,28.45461 C202.0948,28.26361 196.0718,23.24661 195.2198,22.92361 C186.2538,19.53361 174.1198,22.78761 169.3438,31.65961 C168.0358,34.09061 166.1948,38.06161 166.5588,40.87561 C166.1138,40.92761 165.6658,40.85661 165.2028,40.82561 C153.2428,40.03361 142.8938,49.29461 142.0838,61.50861 C141.2748,73.72261 150.3138,84.26661 162.2728,85.05961 C174.2308,85.85361 184.5788,76.59161 185.3898,64.37661 C185.4928,62.82361 185.4338,61.29761 185.2338,59.81461 C185.3868,59.81561 185.5408,59.82661 185.6948,59.82261 C188.0998,59.75761 190.3548,59.14561 192.4458,58.12261 C195.0378,63.42961 199.5328,67.26561 204.8878,68.55061 C205.3548,79.09261 211.7158,88.74761 221.3338,92.18061 C233.3938,96.27061 246.0448,88.90961 249.7648,75.73961 C251.6728,72.69761 252.8798,69.13861 253.1348,65.28461" id="Fill-284" fill="#0E76AA"></path>
    </g>
</svg>