<?xml version="1.0" encoding="UTF-8"?>
<svg width="47px" height="33px" viewBox="0 0 47 33" version="1.1" xmlns="http://www.w3.org/2000/svg" xmlns:xlink="http://www.w3.org/1999/xlink">
    <!-- Generator: sketchtool 53.2 (72643) - https://sketchapp.com -->
    <title>2F96E181-887A-48C3-A0C1-0E17B10A19C6@2x</title>
    <desc>Created with sketchtool.</desc>
    <g id="SignUp" stroke="none" stroke-width="1" fill="none" fill-rule="evenodd">
        <g id="SignUP---Desktop-Icons" transform="translate(-830.000000, -462.000000)" fill="#3FC4FF">
            <g id="Group-6" transform="translate(829.887554, 462.000000)">
                <path d="M24.0774898,0.821830862 C28.7378305,0.821830862 35.3557554,4.19443439 43.9312645,10.9396414 C44.3629808,11.279215 44.7538793,11.6669168 45.0962519,12.0951019 C47.5618543,15.1786844 47.0402499,19.6608251 43.931215,22.1062424 C35.3557299,28.8513108 28.7378215,32.2238449 24.0774898,32.2238449 C19.4486527,32.2238449 12.6094101,28.8986257 3.55976208,22.2481873 C2.99013881,21.8295804 2.48611993,21.3296609 2.06408846,20.7646783 C-0.298052134,17.6024301 0.371722122,13.1397041 3.56007041,10.7968998 C12.6101972,4.14685384 19.449337,0.821830862 24.0774898,0.821830862 Z M24.0761964,27.4609797 C30.1429209,27.4609797 35.0787494,22.5540451 35.0787494,16.5228376 C35.0787494,10.4916301 30.1429209,5.58469543 24.0761964,5.58469543 C18.0094686,5.58469543 13.0736401,10.4916301 13.0736401,16.5228376 C13.0736401,22.5540451 18.0094686,27.4609797 24.0761964,27.4609797 Z M24.0775576,8.36339957 L24.0773373,8.36339007 C28.5182227,8.36339007 32.1321225,12.0237823 32.133991,16.5194536 C32.133991,21.0208271 28.5203307,24.6812193 24.0792537,24.6812193 C19.6364518,24.6812193 16.0206835,21.0188788 16.0206835,16.5194536 C16.0206835,15.366799 16.2602511,14.2419427 16.7300006,13.1801909 C16.8741158,12.8534922 17.1847732,12.6307448 17.5422297,12.5936234 C17.5759157,12.5899074 17.611475,12.5880542 17.6451609,12.5880542 C17.965204,12.5880542 18.2683682,12.7421185 18.4573901,13.0038405 C18.9084209,13.6275389 19.6326861,14.0006346 20.4000229,14.0006346 C21.7175656,14.0006346 22.7899495,12.9351763 22.7899495,11.6247131 C22.7899495,11.0659913 22.5878241,10.5202612 22.2228792,10.0914834 C21.9908144,9.81863252 21.9234472,9.43995339 22.0488294,9.10400283 C22.1742115,8.76805228 22.4736578,8.52489096 22.8292458,8.46920411 C23.2821451,8.39866775 23.690157,8.36339957 24.0775576,8.36339957 Z" id="Shape"></path>
            </g>
        </g>
    </g>
</svg>