<?xml version="1.0" encoding="UTF-8"?>
<svg width="44px" height="36px" viewBox="0 0 44 36" version="1.1" xmlns="http://www.w3.org/2000/svg" xmlns:xlink="http://www.w3.org/1999/xlink">
    <!-- Generator: sketchtool 53.2 (72643) - https://sketchapp.com -->
    <title>600C96F4-7C9B-4301-A280-A52956D246E3@2x</title>
    <desc>Created with sketchtool.</desc>
    <g id="SignUp" stroke="none" stroke-width="1" fill="none" fill-rule="evenodd">
        <g id="SignUP---Desktop-Icons" transform="translate(-556.000000, -333.000000)" fill="#3FC4FF">
            <path d="M557.572869,368.515867 C556.75853,356.265013 554.776366,349.64028 557.572869,345.391588 C560.369373,341.142895 569.836301,340.379949 577.821781,340.379949 C585.807262,340.379949 596.005352,342.058783 598.047,345.391588 C599.408098,347.613457 599.408098,355.321551 598.047,368.515867 L557.572869,368.515867 Z M562.793094,358.800361 L593.390954,358.800361 C593.637691,348.731157 588.424614,343.696556 577.751725,343.696556 C567.078835,343.696556 562.092624,348.731157 562.793094,358.800361 Z M575.405013,357.572404 L572.996205,345.773515 L578.474821,356.681464 L575.405013,357.572404 Z M567.399639,336.221374 C567.10887,336.051013 567.025704,335.677776 567.213883,335.387727 C567.402061,335.097677 567.790325,335.000651 568.081094,335.171013 C569.010241,335.7154 569.772923,336.666012 570.383986,338.007818 C570.521762,338.310354 570.375851,338.674815 570.058084,338.821865 C569.740318,338.968914 569.371028,338.842867 569.233252,338.540331 C568.712946,337.397813 568.096793,336.629837 567.399639,336.221374 Z M574.961684,334.388217 C575.130948,334.109401 575.488931,334.02912 575.761261,334.208904 C576.033592,334.388689 576.117144,334.760458 575.94788,335.039275 C575.935514,335.059646 575.893959,335.197705 575.841504,335.432901 C575.824938,335.507184 575.690093,336.152926 575.640147,336.371919 C575.569741,336.680624 575.441889,337.189266 575.255785,337.901544 C575.172467,338.220427 574.853918,338.404745 574.544286,338.313231 C574.234653,338.221716 574.051189,337.889024 574.134507,337.570141 C574.317595,336.869403 574.442954,336.37068 574.509781,336.07767 C574.556584,335.872454 574.69062,335.230588 574.709847,335.144379 C574.792548,334.773559 574.856266,334.561866 574.961684,334.388217 Z M571.608545,335.925315 C571.60778,335.928185 571.607254,335.930744 571.606929,335.933073 C571.605459,335.873506 571.602487,335.783662 571.598031,335.665095 C571.590125,335.454758 571.553467,334.800072 571.549726,334.711824 C571.533634,334.332235 571.540391,334.111264 571.597274,333.916248 C571.688607,333.603123 572.013613,333.432925 572.323196,333.536099 C572.632779,333.639273 572.809705,333.97675 572.718372,334.289875 C572.711699,334.312752 572.707292,334.456863 572.717499,334.697621 C572.720722,334.77366 572.757602,335.4323 572.766038,335.656757 C572.771993,335.815198 572.77547,335.926067 572.776502,335.992505 C572.777435,336.052507 572.777235,336.080142 572.772778,336.122041 C572.783384,336.156045 572.783384,336.156045 572.621085,336.460089 C572.426228,336.62785 572.426228,336.62785 572.042673,336.614704 C571.783909,336.476396 571.783909,336.476396 571.710631,336.367064 C571.641276,336.237061 571.641276,336.237061 571.629513,336.191356 C571.609802,336.10316 571.609802,336.10316 571.607566,336.078732 C571.601992,336.031944 571.601843,335.985931 571.606612,335.941336 C571.607167,335.942974 571.607104,335.940264 571.607037,335.937484 C571.607498,335.933415 571.608001,335.929359 571.608545,335.925315 Z M572.116872,335.430514 C572.429183,335.401609 572.71398,335.630954 572.764381,335.94666 C572.76602,335.958156 572.761952,335.940018 572.750826,335.890412 C572.73956,335.846294 572.73956,335.846294 572.670663,335.717147 C572.597607,335.608106 572.597607,335.608106 572.339056,335.469907 C571.955708,335.456778 571.955708,335.456778 571.761049,335.624374 C571.652262,335.828051 571.61673,335.894576 571.608545,335.925315 C571.643602,335.664371 571.847619,335.455433 572.116872,335.430514 Z" id="Combined-Shape-Copy-5"></path>
        </g>
    </g>
</svg>