<?xml version="1.0" encoding="UTF-8"?>
<svg width="43px" height="41px" viewBox="0 0 43 41" version="1.1" xmlns="http://www.w3.org/2000/svg" xmlns:xlink="http://www.w3.org/1999/xlink">
    <!-- Generator: sketchtool 53.2 (72643) - https://sketchapp.com -->
    <title>C15113FC-6122-42BA-BB1A-36EBC7CBAD14@2x</title>
    <desc>Created with sketchtool.</desc>
    <g id="SignUp" stroke="none" stroke-width="1" fill="none" fill-rule="evenodd">
        <g id="SignUP---Desktop-Icons" transform="translate(-694.000000, -458.000000)" fill="#3FC4FF">
            <g id="Group-7" transform="translate(693.916916, 458.000000)">
                <path d="M15.4574051,9.54215868 L19.4106196,6.74626418 C20.7458706,5.7979764 22.4551176,5.53156206 24.0217511,6.07108642 L32.5071773,9.00969925 L41.5387659,9.73482728 C42.10366,9.76443213 42.5404859,10.2447254 42.5111732,10.8040441 L41.4335022,31.3672323 C41.4041906,31.9265307 40.9195728,32.3585535 40.3546582,32.3289476 L32.8090972,31.6836897 L22.07464,36.3656437 L22.0225587,36.3629142 C21.653294,36.5484043 21.2373529,36.6280341 20.7766214,36.6038882 L9.69883845,36.0233262 C8.26255225,35.9480536 7.14389483,34.7180266 7.21842177,33.2959679 L7.34616703,30.8584431 C7.35687403,30.6541415 7.36487753,30.5014255 7.42756096,30.3018538 C5.94447352,30.1227103 4.88062138,28.8438281 4.95774537,27.3722147 L5.06147852,25.3928682 C5.07748659,25.087416 5.09079118,24.8335494 5.20625833,24.585037 C3.47411627,24.2914229 2.19850126,23.1048974 2.2730282,21.6828387 L2.38216833,19.6003209 C2.44609418,18.380543 3.47488712,17.4162148 4.87767718,17.1337397 C4.79411974,16.7733787 4.71326631,16.3614218 4.7345744,15.9548393 L4.81440188,14.4316402 C4.9022334,12.755715 6.35824126,11.457784 8.05093387,11.5464942 L13.7939248,11.8474716 C14.0461473,10.9438531 14.6562762,10.1107191 15.4574051,9.54215868 Z M6.78583107,16.0622393 C6.75651948,16.6215377 7.1933238,17.1018502 7.75823842,17.1314561 L13.3468727,17.4243441 L13.5331369,13.8702128 L7.94450255,13.5773249 C7.37960844,13.54772 6.8949712,13.9797215 6.86565855,14.5390402 L6.78583107,16.0622393 Z M5.77284503,22.6278093 L13.2585997,23.0201211 C13.1750422,22.6597601 13.0941872,22.2478336 13.1180939,21.791666 L13.2378352,19.5068673 L5.95640567,19.1252637 C5.03498356,19.076974 4.4488657,19.4519501 4.43285869,19.757382 L4.32371856,21.8398999 C4.31041504,22.0937461 4.90147346,22.5821427 5.77284503,22.6278093 Z M7.78780203,28.333812 L10.0455118,28.4521336 L18.9673258,28.9216916 C19.3779761,28.9432129 19.7552556,28.6049871 19.7791623,28.1488195 L19.8828955,26.169473 C19.906907,25.7113048 19.617025,25.3401206 19.1562934,25.3159747 L18.3871779,25.2736814 C17.8610605,25.5006726 17.2881424,25.6237826 16.6731772,25.5915536 C16.0582121,25.5593247 15.501301,25.3770028 15.0017927,25.0962609 L7.97676965,24.7280951 C7.5140176,24.7038432 7.13673811,25.042069 7.11283138,25.4982367 L7.00909822,27.4775832 C6.98508665,27.9357513 7.32707047,28.3096661 7.78780203,28.333812 Z M9.75526491,33.9874311 L20.8825843,34.5725748 C21.1910925,34.5887431 21.4608046,34.3482939 21.4768116,34.042862 L21.6045569,31.6053372 C21.620565,31.299885 21.3774426,31.0325798 21.0689549,31.0164126 L18.8634495,30.900827 L9.94163548,30.4312689 C9.63312728,30.4151007 9.36341521,30.6555498 9.3474082,30.9609817 L9.21966294,33.3985065 C9.20365487,33.7039587 9.44677722,33.971264 9.75526491,33.9874311 Z M31.9928281,10.9674601 L23.3531335,8.02074202 C22.3928629,7.71585259 21.4086342,7.86909336 20.6082061,8.38601404 L16.6572601,11.1819918 C16.0703641,11.6106706 15.7272632,12.2549626 15.690053,12.9649765 L15.2243926,21.8503047 C15.1764749,22.7646303 15.9057804,23.566543 16.8292537,23.6149402 C17.7527271,23.6633374 18.5618601,22.9420509 18.6097779,22.0277252 L18.942286,15.6830931 C18.9661916,15.2269458 19.241214,14.8853669 19.6598677,14.7541722 C20.0785318,14.6229781 20.4818605,14.745544 20.7743411,15.0671431 C20.9651361,15.331706 25.9053169,21.1392858 32.297642,17.9104004 C32.7743606,17.6291032 33.4334235,17.8167888 33.6632208,18.3379595 C33.947813,18.8102746 33.7589457,19.4626496 33.2328283,19.6896407 C27.7932854,22.4096409 23.2505691,19.8287658 20.8817893,17.9226768 L20.660912,22.1372673 C20.6343028,22.6450003 20.5061293,23.0976994 20.2778974,23.5431588 C21.3343162,24.0062327 22.0503172,25.0620119 21.9864977,26.2797588 L21.8827646,28.2591053 C21.866863,28.5625266 21.7987736,28.8652493 21.6833065,29.1137617 C22.8498817,29.4294631 23.7201367,30.4933264 23.6536138,31.762659 L23.5631852,33.488139 L32.1434246,29.7116441 C32.2982671,29.6700377 32.4552134,29.6265559 32.6094573,29.6346395 L39.250506,30.2394079 L40.2237455,11.707257 L32.2986134,11.0351926 C32.1944508,11.0297337 32.0922883,11.0243796 31.9928281,10.9674601 Z M7.8748161,8.04557676 C8.30362403,8.09624832 8.60749678,8.46374724 8.55353489,8.86640858 C8.499573,9.26906992 8.10821074,9.55441402 7.67940281,9.50374245 C5.10532126,9.19956727 3.34014149,10.0704823 2.21741636,12.1906341 C2.02498386,12.5540232 1.55527268,12.7021229 1.16828708,12.521424 C0.781301478,12.3407251 0.623585029,11.8996546 0.81601753,11.5362654 C2.23732053,8.8522798 4.64573578,7.66400139 7.8748161,8.04557676 Z M23.5161017,0.0821233623 C23.9304702,0.114576303 24.240695,0.484918644 24.2090082,0.909306133 C24.1773215,1.33369362 23.8157222,1.65141935 23.4013537,1.61896641 C21.4687678,1.46760816 20.0231586,1.96675346 18.9947361,3.1058618 C18.7125968,3.41836686 18.2365231,3.43745299 17.9313957,3.14849188 C17.6262683,2.85953076 17.6076328,2.37194609 17.889772,2.05944104 C19.250432,0.552337482 21.1491385,-0.103254904 23.5161017,0.0821233623 Z M21.032107,40.9909211 C20.6166563,40.9810265 20.2882538,40.6509018 20.2985995,40.2535668 C20.3089452,39.8562319 20.6541215,39.5421495 21.0695722,39.5520441 C23.0531498,39.5992861 24.5050597,39.0611099 25.4934604,37.9465402 C25.7622658,37.6434219 26.2371051,37.6061037 26.5540435,37.8631878 C26.870982,38.1202719 26.9100016,38.5744057 26.6411962,38.877524 C25.3381116,40.3469469 23.4456956,41.0484045 21.032107,40.9909211 Z" id="Combined-Shape-Copy-2"></path>
            </g>
        </g>
    </g>
</svg>