<?xml version="1.0" encoding="UTF-8"?>
<svg width="46px" height="44px" viewBox="0 0 46 44" version="1.1" xmlns="http://www.w3.org/2000/svg" xmlns:xlink="http://www.w3.org/1999/xlink">
    <!-- Generator: sketchtool 53.2 (72643) - https://sketchapp.com -->
    <title>D57B1BB3-BC97-48B7-911C-24B16BF816BB@2x</title>
    <desc>Created with sketchtool.</desc>
    <g id="SignUp" stroke="none" stroke-width="1" fill="none" fill-rule="evenodd">
        <g id="SignUP---Desktop-Icons" transform="translate(-554.000000, -563.000000)" fill="#3FC4FF">
            <path d="M566.324789,593.039058 L566.324789,566.433059 C566.324789,565.362108 567.188009,564.498887 568.25896,564.498887 L586.633594,564.498887 C587.704545,564.498887 588.567766,565.362108 588.567766,566.433059 L588.567766,571.532326 L596.863405,563.511274 C597.583365,562.815144 598.733735,562.83199 599.432827,563.5489 C600.13192,564.265809 600.115003,565.411305 599.395042,566.107435 L558.02915,606.104111 C557.309189,606.800241 556.158819,606.783395 555.459727,606.066485 C554.760635,605.349575 554.777552,604.20408 555.497513,603.50795 L566.324789,593.039058 Z M586.633594,573.402477 L586.633594,569.334317 L568.25896,569.334317 L568.25896,591.168908 L586.633594,573.402477 Z M566.324789,602.923267 L571.875754,597.37981 L586.633594,597.37981 L586.633594,582.641933 L588.567766,580.710377 L588.567766,603.182326 C588.567766,604.253277 587.704545,605.116498 586.633594,605.116498 L568.25896,605.116498 C567.188009,605.116498 566.324789,604.253277 566.324789,603.182326 L566.324789,602.923267 Z M577.446277,598.830439 C576.110877,598.830439 575.028562,599.912753 575.028562,601.248154 C575.028562,602.583555 576.110877,603.665869 577.446277,603.665869 C578.781678,603.665869 579.863992,602.583555 579.863992,601.248154 C579.863992,599.912753 578.781678,598.830439 577.446277,598.830439 Z" id="Combined-Shape"></path>
        </g>
    </g>
</svg>