<?xml version="1.0" encoding="UTF-8"?>
<svg width="49px" height="41px" viewBox="0 0 49 41" version="1.1" xmlns="http://www.w3.org/2000/svg" xmlns:xlink="http://www.w3.org/1999/xlink">
    <!-- Generator: sketchtool 53.2 (72643) - https://sketchapp.com -->
    <title>74AEA42D-C74D-4C30-8E27-F90C6C94FDC5@2x</title>
    <desc>Created with sketchtool.</desc>
    <g id="SignUp" stroke="none" stroke-width="1" fill="none" fill-rule="evenodd">
        <g id="SignUP---Desktop-Icons" transform="translate(-553.000000, -458.000000)" fill="#3FC4FF">
            <g id="Group-5" transform="translate(552.946277, 458.000000)">
                <path d="M19.5183352,15.1130999 L1.1842843,19.8553151 L0.764060498,18.3414103 C0.233235566,16.4290522 1.28964976,14.4930696 3.12272055,14.0189346 L16.2562526,10.6218656 L19.5183352,15.1130999 Z M5.51340177,37.5317338 L1.83041782,24.2640108 L21.883286,19.0772129 L25.7714386,22.0233643 L22.3699204,26.3610532 L26.9662923,35.545769 L9.80812186,39.9838354 C7.94641111,40.4653783 6.02285921,39.367113 5.51340177,37.5317338 Z M30.9080672,24.2005407 L34.8895002,21.888713 L33.1305344,16.6215469 L48.2773932,16.8824093 L48.0351222,30.5832541 C48.001608,32.4785426 46.4168001,33.9892221 44.4967155,33.9561541 L32.8275615,33.7551855 L30.9080672,24.2005407 Z M8.59544244,33.9207883 C8.68035414,34.2266926 9.12440554,34.3767457 9.58699612,34.2570938 L14.7878684,32.9118561 C15.2504633,32.7922031 15.5556232,32.4483619 15.4707115,32.1424576 C15.3857998,31.8365534 14.9434218,31.6860675 14.4808313,31.8057194 L9.27995899,33.150957 C8.81736841,33.2706089 8.51053152,33.6148869 8.59544244,33.9207883 Z M7.54028396,30.3025932 C7.79488937,31.2198386 8.75432865,31.7677928 9.68450245,31.5271976 L20.6427971,28.6927672 C21.5712885,28.4526072 22.1183666,27.514983 21.8637612,26.5977376 C21.6096163,25.6821512 20.6501771,25.134197 19.7216857,25.374357 L8.76339105,28.2087874 C7.83321725,28.4493826 7.28613907,29.3870068 7.54028396,30.3025932 Z M48.6233164,12.6352569 L32.3808052,12.0813369 L32.5508905,7.32419777 L45.3170886,7.7595647 C47.2363081,7.82501603 48.7402169,9.3607493 48.6748716,11.1884023 L48.6233164,12.6352569 Z M36.215355,23.5722712 L36.101281,26.7628235 C36.0764202,27.4581574 36.554904,28.0397829 37.1710863,28.0607966 L41.3399447,28.2029676 C41.956127,28.2239813 42.4749852,27.6763683 42.499846,26.9810344 L42.61392,23.7904821 C42.6387808,23.0951483 42.1602294,22.5154144 41.5440471,22.4944007 L37.3751886,22.3522297 C36.7590063,22.3312159 36.2402158,22.8769374 36.215355,23.5722712 Z M23.7713173,7.20487869 L20.926209,0.966848176 L25.3579817,1.04317308 L25.2485748,7.23032032 L23.7713173,7.20487869 Z" id="Shape-Copy-4"></path>
            </g>
        </g>
    </g>
</svg>