<?xml version="1.0" encoding="UTF-8"?>
<svg width="45px" height="44px" viewBox="0 0 45 44" version="1.1" xmlns="http://www.w3.org/2000/svg" xmlns:xlink="http://www.w3.org/1999/xlink">
    <!-- Generator: sketchtool 53.2 (72643) - https://sketchapp.com -->
    <title>2DC284C7-A9AD-4E8E-9D2D-DE8C78BC0DB7@2x</title>
    <desc>Created with sketchtool.</desc>
    <g id="SignUp" stroke="none" stroke-width="1" fill="none" fill-rule="evenodd">
        <g id="SignUP---Desktop-Icons" transform="translate(-693.000000, -329.000000)" fill="#3FC4FF">
            <g id="Group-2" transform="translate(692.916916, 329.000000)">
                <path d="M13.276553,30.7395235 L2.24361626,28.1214554 C0.978769069,27.8994115 0.25267111,26.7208477 0.6896632,25.3952496 L1.49233112,21.7670275 C1.9795927,20.6235413 3.17307651,19.8685337 4.43553455,20.0912498 L20.5497875,23.843175 L40.0529494,5.35063188 C40.7035086,4.73378357 41.7429868,4.74871056 42.3746892,5.38397226 C43.0063915,6.01923395 42.9911051,7.03426967 42.3405459,7.65111798 L4.96217627,43.0926076 C4.31161715,43.709456 3.27213886,43.694529 2.64043653,43.0592673 C2.0087342,42.4240056 2.02402065,41.4089699 2.67457976,40.7921215 L13.276553,30.7395235 Z M19.1631198,25.157988 L6.65305772,22.2911995 C6.90624505,23.2105028 6.54958607,24.1101771 5.67167604,24.5710227 C6.16105235,25.6162701 5.34770735,27.0526716 4.13168019,27.01748 L14.5997123,29.484928 L19.1631198,25.157988 Z M20.2768699,32.4006683 L21.5789501,31.1300229 L33.9968665,34.0570833 L35.3853924,28.8754616 L26.075507,26.7420211 L27.4094113,25.4403198 L43.0993956,29.0934613 L43.1000889,29.0959762 C44.2304221,29.5577789 44.9565324,30.736339 44.7049059,32.0066924 L43.6659838,35.5056562 C43.414317,36.7760084 42.2208332,37.531016 40.9583751,37.3082999 L20.2768699,32.4006683 Z M4.81647924,16.0071659 L4.8137479,16.0081278 C4.8137479,16.0081278 -0.183642371,8.73567839 6.45728619,7.1172423 C7.90767053,6.91398098 8.54506817,6.16619209 8.98440915,5.46992297 C10.0337894,2.49854471 5.81308188,2.11444501 5.79907589,1.34962818 C5.71822846,-0.355283517 10.045256,0.381622996 10.7137143,4.03763092 C11.9325137,10.2288014 0.229271952,6.51408386 6.10646996,15.2711358 C6.77372265,16.0500247 5.2831458,16.8382516 4.81647924,16.0071659 Z M6.82666123,13.2318728 L6.82593501,13.2291667 C6.93957,11.4033051 8.32258317,9.17608304 10.0595354,9.0751611 C10.4222283,8.96049526 10.710769,9.31747571 10.8179668,9.73180285 C11.0323766,10.5605122 8.98630272,10.9832574 8.382255,13.1882876 C8.28690496,14.3361013 6.91261432,14.3223374 6.82666123,13.2318728 Z" id="Combined-Shape-Copy-3"></path>
            </g>
        </g>
    </g>
</svg>