<?xml version="1.0" encoding="UTF-8"?>
<svg width="43px" height="44px" viewBox="0 0 43 44" version="1.1" xmlns="http://www.w3.org/2000/svg" xmlns:xlink="http://www.w3.org/1999/xlink">
    <!-- Generator: sketchtool 53.2 (72643) - https://sketchapp.com -->
    <title>D462F4FA-3E81-4793-AB31-E01A04606B46@2x</title>
    <desc>Created with sketchtool.</desc>
    <g id="SignUp" stroke="none" stroke-width="1" fill="none" fill-rule="evenodd">
        <g id="SignUP---Desktop-Icons" transform="translate(-832.000000, -329.000000)" fill="#3FC4FF">
            <g id="Group" transform="translate(831.887554, 329.000000)">
                <path d="M11.7195064,30.9646953 C11.3408997,30.5169344 10.8264094,30.1317867 10.2565295,29.7048983 C7.86768783,27.9175689 4.89461677,25.6917155 8.21714461,16.3951706 L8.56660139,16.1687795 L18.0035677,16.1687795 L18.3530245,16.3951706 C19.3832703,19.276045 19.8087191,21.477921 19.8341856,23.1981647 L23.5122427,19.6779042 L23.5122427,16.4526178 C23.5122427,16.4526178 23.2566214,14.272103 24.069019,13.4978855 C24.8814165,12.7218009 26.1163185,11.7886419 26.9958797,11.1004538 C27.6154881,10.6159695 27.3533446,2.01732942 27.3533446,2.01732942 C27.3533446,2.01732942 27.1908651,0.807382373 27.6154881,0.467027318 C27.8126532,0.308071444 28.8850534,0.223918615 30.011584,0.214568833 L30.011584,0.212701749 C30.0159155,0.212701749 30.0202526,0.214568833 30.0267471,0.214568833 C30.0310842,0.214568833 30.0332472,0.212701749 30.0397472,0.212701749 L30.0397472,0.210829878 C31.1662778,0.222046744 32.2386947,0.304332488 32.4358431,0.463288362 C32.8583031,0.803672142 32.695818,2.01359046 32.695818,2.01359046 C32.695818,2.01359046 32.4851031,8.92527776 32.8880262,10.7043711 L39.6738113,4.20971739 C40.3420396,3.57015816 41.4097501,3.58563474 42.0586095,4.24428528 C42.7074689,4.90293583 42.6917672,5.95534279 42.0235389,6.59490202 L3.62997238,43.3412647 C2.96174407,43.9808239 1.89403354,43.9653473 1.24517417,43.3066968 C0.596314794,42.6480462 0.612016419,41.5956393 1.28024473,40.95608 L11.7195064,30.9646953 Z M18.2105424,24.752145 C18.2839575,24.481161 18.3362223,24.1958058 18.3610401,23.8966335 C18.4011066,23.4101676 18.374394,22.867885 18.3095247,22.3064525 L8.26237896,22.3064525 C8.19559988,22.867885 8.17079706,23.4101676 8.21086353,23.8966335 C8.43788897,26.6335251 10.9640354,28.2141516 10.9640354,28.2141516 C10.9640354,28.2141516 12.3206199,29.0578927 13.2116264,29.0578927 L13.2114506,29.0578927 C13.3968421,29.0578927 13.589342,29.0329394 13.7810322,28.9916154 L18.2105424,24.752145 Z M14.2852765,38.5770278 C14.8046871,39.7235324 17.5083349,40.1360648 18.5806082,40.1965619 L18.5823974,40.1965619 C18.912159,40.1965619 19.2006861,40.4514368 19.2024754,40.7633197 C19.2024754,41.0783476 18.9139712,41.3332386 18.5591376,41.3332386 L11.4093696,41.3332386 L14.2852765,38.5770278 Z M36.5344946,17.2538286 L36.5323999,40.0903803 C36.4695622,40.8889192 36.1749516,41.302215 35.4274993,41.8108757 C34.6801024,42.3176645 32.8255865,42.5607732 32.8255865,42.5607732 L27.2212191,42.5607732 C27.2212191,42.5607732 25.3667586,42.3195364 24.6193063,41.8108757 C23.8697076,41.3003 23.5772378,40.8889192 23.5122427,40.0903803 L23.5122427,29.7340906 L26.3850691,26.980832 L26.3850691,33.9680311 L35.1179502,33.9680311 L35.1179502,24.1477544 L29.341181,24.1477544 L36.5344946,17.2538286 Z" id="Combined-Shape-Copy-4"></path>
            </g>
        </g>
    </g>
</svg>